<svg xmlns="http://www.w3.org/2000/svg" width="134.83" height="201.192" viewBox="0 0 134.83 201.192"><defs><style>.a{fill:#eaedf1;}.b{fill:#f4f6f8;}.c{fill:#c4cdd5;}.d{fill:#dfe3e8;}.e{fill:#fff;}.f{fill:#919eab;}.g{fill:#fbd5b5;}.h{fill:rgba(3,3,3,0.99);}.i{fill:#59555b;}.j{fill:#363636;}.k{fill:#1e394c;}.l{fill:#e6004e;}.m{fill:rgba(255,19,99,0.99);}.n{fill:#ffe5ee;}.o{fill:#700429;}.p{fill:rgba(112,4,41,0.99);}.q{fill:#656565;}.r{fill:#f2c2d4;opacity:0.26;}.s{fill:#b21352;opacity:0.17;}.t{fill:#fcdce8;opacity:0.42;}.u{fill:#454f5b;}</style></defs><g transform="translate(-19723 -1453.179)"><g transform="translate(19801.828 1508.351) rotate(-3)"><g transform="translate(0 0)"><g transform="translate(0 0)"><path class="a" d="M46.581,26.1a1.852,1.852,0,0,0-.829-1.446L3.428.2A1.815,1.815,0,0,0,1.77.2L.833.736A1.852,1.852,0,0,0,0,2.18V34.635A1.852,1.852,0,0,0,.829,36.08L43.182,60.508a1.815,1.815,0,0,0,1.659,0l.937-.535a1.852,1.852,0,0,0,.833-1.444Z"/></g></g><path class="b" d="M46.073,25.244l-2.355,1.365L0,1.351A1.632,1.632,0,0,1,.589.735L1.525.2A1.815,1.815,0,0,1,3.184.2l42.3,24.428A1.454,1.454,0,0,1,46.073,25.244Z" transform="translate(0.268 0.027)"/><path class="c" d="M3.238.8V33.258a1.852,1.852,0,0,1-.83,1.444l-.937.535c-.08.027-.133.08-.214.107-.107.027-.214.053-.348.08A1.707,1.707,0,0,1,.268,35.4a.381.381,0,0,1-.16-.053c-.027,0-.053-.027-.107-.027a.517.517,0,0,0,.4,0,.561.561,0,0,0,.268-.535V2.3a.693.693,0,0,0-.427-.7L.67,1.364,3.024,0A1.9,1.9,0,0,1,3.238.8Z" transform="translate(43.343 25.27)"/><path class="c" d="M43.985,25.337l-19.61,7.331A3.181,3.181,0,0,1,20.6,31.411L17.445,26.6.08,0,16.829,26.782,0,33.364a1.683,1.683,0,0,0,.268.829l16.615-7.331L20.522,32.7a3.188,3.188,0,0,0,3.987,1.228l2.6-1.15L43.719,59.291a.561.561,0,0,0,.268-.535V58.22L27.21,32.775Z" transform="translate(0.027 1.298)"/></g><g transform="translate(19839.875 1522.386)"><g transform="translate(0 0.888) rotate(-3)"><g transform="translate(0 0)"><path class="d" d="M0,2.143,2.889.484h0L2.918.457h0c1.285-.722,3.05-.616,5,.511A15.728,15.728,0,0,1,15.036,13.3c0,2.274-.8,3.853-2.087,4.6h0l-2.622,1.5-.642-1.044a6.975,6.975,0,0,1-2.034-.8A15.733,15.733,0,0,1,.535,5.247,7.712,7.712,0,0,1,.749,3.428Z" transform="translate(1.926 0)"/><path class="e" d="M7.117.974a15.723,15.723,0,0,1,7.117,12.308c0,4.522-3.184,6.368-7.117,4.094A15.723,15.723,0,0,1,0,5.068C0,.546,3.184-1.3,7.117.974Z" transform="translate(0 1.597)"/></g></g><g transform="translate(8.623 15.216) rotate(-177)"><path class="f" d="M3.02,3.389c.044.044.044.089.044.178a.469.469,0,0,1-.089.219L1.152,6.5l-.131.2a.3.3,0,0,1-.155.133l-.647.377a.14.14,0,0,1-.155.022C.023,7.209,0,7.164,0,7.075V.836A.428.428,0,0,1,.066.617.6.6,0,0,1,.219.437L.91.036A.14.14,0,0,1,1.066.014c.044.022.066.066.066.155V4.944l1.2-1.754a.511.511,0,0,1,.155-.155.131.131,0,0,1,.155.022Z" transform="translate(0 0)"/></g></g><g transform="translate(19766.846 1524.972)"><path class="g" d="M106.983,210.931s-1.694-.593-1.863-4.231h-4.909l-.511,5.081,3.641,3.049,3.137-1.609Z" transform="translate(-76.993 -88.649)"/><path class="h" d="M99.724,212.462s5.674,1.863,7.2-.762c0,0,10.5,3.9,10.416,5.081-.085,1.863-8.807,2.2-10.755,1.778l-1.694-1.694-.762,1.948H99.3C99.469,218.729,99.554,212.716,99.724,212.462Z" transform="translate(-76.931 -89.414)"/><path class="g" d="M85.6,210.873s-1.609-.678-1.694-4.319l-4.827-.254-.678,5,3.472,3.218,3.218-1.44Z" transform="translate(-73.731 -88.587)"/><path class="h" d="M78.211,212.124s5.589,2.115,7.283-.423c0,0,9.231,3.3,9.739,4.827s-8.469,2.541-10.332,1.948L83.291,216.7l-.85,1.859L77.7,218.3A59.719,59.719,0,0,1,78.211,212.124Z" transform="translate(-73.623 -89.414)"/><path class="i" d="M74.4,143.5s3.137,12.788,3.9,14.989c.762,2.115,2.371,12.534,2.456,12.872S77.2,198.546,77.2,198.546s5,1.1,6.944-.169l5.42-27.1L87.272,144.6Z" transform="translate(-73.118 -78.97)"/><path class="j" d="M75.2,142.137s4.912,8.3,9.231,12.025,9.739,13.719,9.739,13.719l.678,29.725h0a6.848,6.848,0,0,0,6.857.169l.338-.169s.762-30.91.678-32.942C102.554,162.627,91.714,139,91.714,139Z" transform="translate(-73.241 -78.28)"/><path class="k" d="M94.7,76.531S90.89,90,84.792,89.572c-5.335-.338-6.351-5.928-5.081-12.788,1.355-7.113,7.2-6.182,10.67-6.182,0,0,4.231,0,4.912-3.3,0,.085,4.912,6.857-.593,9.231" transform="translate(-73.856 -67.3)"/><path class="l" d="M83.991,97.594s-7.453-1.355-10.925,14.651c-1.44,6.69,6.182,17.191,6.182,17.191l7.96-15.328Z" transform="translate(-72.886 -71.935)"/><path class="g" d="M123,84.937s2.794-7.791,2.794-9.909,1.609-.254,1.524,1.355a29.457,29.457,0,0,1-.424,3.387s2.2.169,2.2,1.185-.678,4.657-1.694,5.166Z" transform="translate(-80.561 -68.339)"/><path class="m" d="M88.146,97.062c5,2.541,15.582,9.231,18.038,7.029S115.328,86.9,115.328,86.9l4.319,1.27s-9.316,24.982-12.108,24.9S95.43,111.2,95.43,111.2s-.847,17.614-3.387,22.526c0,0-12.619,4.573-19.139.847a24.079,24.079,0,0,0,3.98-17.107C75.357,106.8,78.236,91.981,88.146,97.062Z" transform="translate(-72.889 -70.302)"/><g transform="translate(10.936 9.231)"><path class="g" d="M95.709,78.2a11.5,11.5,0,0,0,1.185,3.472,9.871,9.871,0,0,0,2.2,2.2L97.911,85.4a5.529,5.529,0,0,1-4.827,6.436L92.49,97.17l-6.436-2.2L85.8,91.33a4.48,4.48,0,0,0,1.1-2.287,3.066,3.066,0,0,1-.847-2.71c.423-1.44,1.694-2.626,2.371-2.032A2.726,2.726,0,0,1,89.1,85.91h.847a9.541,9.541,0,0,1,.338-3.472A7.708,7.708,0,0,1,95.709,78.2Z" transform="translate(-85.8 -78.2)"/></g></g><path class="i" d="M88.642,160.6c-4.231-.931-8.3-3.472-11.432-6.013-1.016-3.811-2.286-9.061-2.71-10.585a10.241,10.241,0,0,0,1.525.423c1.609,2.626,5.081,7.791,8.3,10.5a30.737,30.737,0,0,1,4.231,4.827Z" transform="translate(19693.711 1445.925)"/><g transform="translate(19723 1587.096)"><path class="n" d="M46.9,153.083s2.786-24.592-7.321-20.691C29.076,136.369,42.207,152.526,46.9,153.083Z" transform="translate(-29.683 -131.328)"/><path class="n" d="M42.6,172.337s-3.1-24.59-12.017-17.746C22.542,160.719,36.628,170.507,42.6,172.337Z" transform="translate(-28.162 -135.702)"/><path class="o" d="M37.985,165.484c4.059,5.65,8.038,11.459,9.31,18.463.08.4.637.239.557-.159C46.579,176.7,42.6,170.9,38.462,165.166c-.159-.318-.716,0-.478.318Z" transform="translate(-30.156 -138.08)"/><path class="n" d="M55.918,147.666s-3.661-18.064,5.65-16.393S58.305,146.873,55.918,147.666Z" transform="translate(-33.685 -131.163)"/><path class="n" d="M57.136,170.119c-.478.318-.955-15.279,5.65-14.722S66.288,163.991,57.136,170.119Z" transform="translate(-34.028 -136.109)"/><path class="o" d="M53.431,165.058c-.716-9.151,3.1-19.5,6.6-27.773.159-.318-.4-.637-.478-.318-3.581,8.515-7.48,18.781-6.684,28.092a.279.279,0,1,0,.557,0Z" transform="translate(-33.187 -132.322)"/><path class="p" d="M52.561,178.943c-.478-10.743-1.433-21.646-7.4-30.877-.239-.318-.716,0-.478.318,5.969,9.154,6.924,19.9,7.321,30.559C52,179.34,52.641,179.34,52.561,178.943Z" transform="translate(-31.522 -134.588)"/><path class="o" d="M56.255,182.041c.239-5.65.637-11.3,3.741-16.155.239-.318-.318-.637-.478-.318-3.183,4.934-3.581,10.743-3.82,16.473-.08.4.557.4.557,0Z" transform="translate(-33.783 -138.162)"/><g transform="translate(12.117 41.252)"><path class="j" d="M43.4,184.433l1.512,13.847a3.382,3.382,0,0,0,3.422,3.024h8.833a3.439,3.439,0,0,0,3.422-3.024L62.1,184.433A1.295,1.295,0,0,0,60.825,183H44.591a1.284,1.284,0,0,0-1.194,1.433Z" transform="translate(-43.388 -183)"/><path class="q" d="M62.831,183h-5.57a1.257,1.257,0,0,1,1.274,1.433l-1.512,13.847A3.382,3.382,0,0,1,53.6,201.3h5.571a3.439,3.439,0,0,0,3.422-3.024L64.1,184.433A1.295,1.295,0,0,0,62.831,183Z" transform="translate(-45.474 -183)"/></g><path class="r" d="M44.52,151.271a8.389,8.389,0,0,0,3.422,1.91s2.785-24.351-7.242-20.771C43.405,135.75,49.135,144.268,44.52,151.271Z" transform="translate(-30.722 -131.344)"/><path class="r" d="M63.361,155.5c.239,3.1.159,11.3-6.366,10.743-.08,2.308.08,3.979.239,3.82C65.987,164.174,69.17,156.455,63.361,155.5Z" transform="translate(-34.045 -136.133)"/><path class="s" d="M62.084,131.4c.239,3.183.159,12.1-6.684,11.7.239,2.626.637,4.616.637,4.616C58.265,146.918,70.441,133.469,62.084,131.4Z" transform="translate(-33.725 -131.211)"/><path class="t" d="M43.012,172.337s-3.1-24.59-12.017-17.746c-.318.239-.557.478-.8.637,2.785.955,12.017,5.013,8.992,15.438C40.625,171.382,41.978,171.94,43.012,172.337Z" transform="translate(-28.578 -135.702)"/></g><g transform="translate(19733.373 1453.179)"><g transform="translate(58.414 20.137)"><path class="u" d="M193.5,101.21l3.486,3.72L223.418,93.9Z" transform="translate(-186.427 -88.959)"/><path class="c" d="M180.926,79.3l-2.64,3.926,1.794,3.858-3.96.677-3.52,7.683L210.438,84Z" transform="translate(-172.6 -79.3)"/><path class="u" d="M191.194,94.758,189.4,90.9l20.509.948Z" transform="translate(-183.714 -86.974)"/></g><g transform="translate(29.952 34.012)"><path class="d" d="M122.445,152.417h-.88a.489.489,0,0,1-.511-.541c.034-.3.271-.576.541-.511,1.386,0,2.741,0,4.231-.068h.034a.578.578,0,0,1,.541.511.511.511,0,0,1-.511.541C124.645,152.384,123.529,152.417,122.445,152.417Zm-5.144-.2h-.034c-1.459-.136-2.91-.3-4.264-.541a.552.552,0,0,1-.438-.609.584.584,0,0,1,.609-.438c1.354.237,2.741.406,4.163.541a.511.511,0,0,1,.474.576A.516.516,0,0,1,117.3,152.215Zm-8.359-1.557a.3.3,0,0,1-.169-.034,32,32,0,0,1-4.027-1.557.538.538,0,1,1,.438-.982,31.8,31.8,0,0,0,3.892,1.49.53.53,0,0,1,.338.677.448.448,0,0,1-.473.406Zm-7.682-3.622a.546.546,0,0,1-.3-.1,29.024,29.024,0,0,1-3.418-2.673.527.527,0,0,1,.71-.778,26.793,26.793,0,0,0,3.282,2.572.541.541,0,0,1,.136.745.411.411,0,0,1-.406.236ZM95,141.317a.482.482,0,0,1-.406-.2,25.73,25.73,0,0,1-2.437-3.587.523.523,0,1,1,.914-.511,26.836,26.836,0,0,0,2.334,3.452.535.535,0,0,1-.1.745.413.413,0,0,1-.3.1Zm-4.2-7.377a.592.592,0,0,1-.511-.339,26.771,26.771,0,0,1-1.185-4.2.511.511,0,0,1,.406-.609.495.495,0,0,1,.609.406,24.338,24.338,0,0,0,1.151,3.994.526.526,0,0,1-.3.677.258.258,0,0,1-.166.067Zm-1.692-8.326a.549.549,0,0,1-.541-.511c-.068-.88-.068-1.794-.068-2.708v-.2c0-.474,0-.914.034-1.386a.528.528,0,0,1,.541-.511h.034a.527.527,0,0,1,.511.541c0,.438-.034.914-.034,1.354v.2c0,.914.034,1.794.068,2.64a.535.535,0,0,1-.511.576Z" transform="translate(-88.5 -120.3)"/></g><g transform="translate(0 0)"><path class="d" d="M35.029,50.7c-.813,0-1.624,0-2.4-.034a.525.525,0,1,1,.034-1.049h0c1.354.034,2.772.034,4.231,0a.489.489,0,0,1,.541.511.528.528,0,0,1-.511.541C36.281,50.7,35.638,50.7,35.029,50.7Zm6.127-.169a.549.549,0,0,1-.541-.511.558.558,0,0,1,.511-.576c1.386-.068,2.809-.169,4.231-.3a.552.552,0,0,1,.576.474.531.531,0,0,1-.474.576c-1.422.169-2.877.271-4.3.338ZM28.4,50.462h-.034c-1.489-.1-2.91-.271-4.264-.474a.5.5,0,0,1-.438-.609.516.516,0,0,1,.609-.438c1.32.2,2.741.338,4.2.474a.511.511,0,0,1,.474.576.547.547,0,0,1-.546.471Zm21.254-.677a.547.547,0,0,1-.541-.474.511.511,0,0,1,.474-.576c1.386-.169,2.772-.338,4.231-.541a.531.531,0,1,1,.163,1.05c-1.459.2-2.845.406-4.231.541ZM19.97,49.244h-.1c-1.015-.237-2.031-.474-2.978-.778-.406-.136-.813-.237-1.185-.372a.535.535,0,0,1,.338-1.015c.372.136.778.237,1.151.372.914.271,1.9.541,2.91.745a.544.544,0,0,1,.406.643.614.614,0,0,1-.543.406ZM11.913,46.5a.627.627,0,0,1-.237-.068,25.448,25.448,0,0,1-3.757-2.2.535.535,0,1,1,.609-.88,26.4,26.4,0,0,0,3.587,2.132.517.517,0,0,1,.237.71A.438.438,0,0,1,11.913,46.5Zm18.242-.474a.535.535,0,0,1-.541-.541v-.2c0-1.354-.068-2.708-.169-4.027a.531.531,0,0,1,.474-.576.552.552,0,0,1,.576.474c.1,1.354.169,2.741.169,4.129v.2a.489.489,0,0,1-.508.541Zm-25.112-4.5a.7.7,0,0,1-.406-.169A18.425,18.425,0,0,1,2.1,37.8a.523.523,0,1,1,.914-.511,16.435,16.435,0,0,0,2.4,3.35.532.532,0,0,1-.034.747.392.392,0,0,1-.338.136Zm24.436-3.994a.486.486,0,0,1-.511-.438A34.647,34.647,0,0,0,28.02,33a.511.511,0,0,1,.372-.643.491.491,0,0,1,.643.372c.372,1.32.71,2.741.982,4.231a.516.516,0,0,1-.438.609A.124.124,0,0,0,29.478,37.534ZM.982,34.15a.539.539,0,0,1-.511-.406,5.409,5.409,0,0,1-.169-.71A9.629,9.629,0,0,1,0,30.7a8.783,8.783,0,0,1,.1-1.354.516.516,0,0,1,.609-.438.516.516,0,0,1,.438.609,7.4,7.4,0,0,0-.1,1.218,9.153,9.153,0,0,0,.271,2.1c.068.237.1.474.169.677a.541.541,0,0,1-.372.643Zm26.06-4.772a.511.511,0,0,1-.474-.3A18.783,18.783,0,0,0,24.4,25.554a.529.529,0,1,1,.813-.677,21.037,21.037,0,0,1,2.3,3.72.546.546,0,0,1-.237.71.365.365,0,0,1-.237.071ZM2.3,26.061a.473.473,0,0,1-.3-.1.535.535,0,0,1-.1-.745,12.24,12.24,0,0,1,3.317-2.945.584.584,0,0,1,.745.169.55.55,0,0,1-.169.745,10.7,10.7,0,0,0-3.046,2.673.6.6,0,0,1-.441.2ZM21.66,22.914a.546.546,0,0,1-.3-.1,11.864,11.864,0,0,0-3.72-1.624.511.511,0,0,1-.372-.643.541.541,0,0,1,.643-.372,13.571,13.571,0,0,1,4.061,1.76.576.576,0,0,1,.169.745.711.711,0,0,1-.477.236ZM9.375,21.56a.515.515,0,0,1-.139-1.015A19.18,19.18,0,0,1,13.4,19.8h.169a.551.551,0,0,1,.541.511.528.528,0,0,1-.511.541h-.1a18.7,18.7,0,0,0-3.926.71Z" transform="translate(0 -19.8)"/></g></g></g></svg>