<svg xmlns="http://www.w3.org/2000/svg" width="184.842" height="275.821" viewBox="0 0 184.842 275.821">
  <g id="Group_544" data-name="Group 544" transform="translate(-19723 -1453.179)">
    <g id="Letter_2_" transform="translate(19831.063 1528.817) rotate(-3)">
      <g id="XMLID_13_">
        <g id="XMLID_14_">
          <path id="XMLID_15_" d="M63.86,35.782A2.539,2.539,0,0,0,62.723,33.8L4.7.275a2.488,2.488,0,0,0-2.274,0l-1.284.734A2.539,2.539,0,0,0,0,2.989V47.483a2.539,2.539,0,0,0,1.137,1.981L59.2,82.952a2.488,2.488,0,0,0,2.274,0l1.284-.734A2.539,2.539,0,0,0,63.9,80.238Z" fill="#eaedf1"/>
        </g>
      </g>
      <path id="XMLID_12_" d="M63.163,34.608l-3.228,1.871L0,1.852a2.238,2.238,0,0,1,.807-.844L2.091.275a2.488,2.488,0,0,1,2.274,0L62.357,33.764A1.994,1.994,0,0,1,63.163,34.608Z" transform="translate(0.367 0.037)" fill="#f4f6f8"/>
      <path id="XMLID_11_" d="M4.438,1.1V45.594A2.539,2.539,0,0,1,3.3,47.574l-1.284.734c-.11.037-.183.11-.293.147-.147.037-.293.073-.477.11a2.34,2.34,0,0,1-.88-.037.522.522,0,0,1-.22-.073c-.037,0-.073-.037-.147-.037a.709.709,0,0,0,.55,0,.769.769,0,0,0,.367-.734V3.155A.95.95,0,0,0,.33,2.2l.587-.33L4.145,0A2.6,2.6,0,0,1,4.438,1.1Z" transform="translate(59.422 34.644)" fill="#c4cdd5"/>
      <path id="XMLID_10_" d="M60.3,34.736,33.416,44.787a4.361,4.361,0,0,1-5.172-1.724l-4.328-6.6L.11,0,23.072,36.717,0,45.74a2.307,2.307,0,0,0,.367,1.137l22.778-10.05,4.989,8A4.37,4.37,0,0,0,33.6,46.511l3.558-1.577,22.778,36.35a.769.769,0,0,0,.367-.734v-.734l-23-34.883Z" transform="translate(0.037 1.779)" fill="#c4cdd5"/>
    </g>
    <g id="Group_544-2" data-name="Group 544" transform="translate(19883.227 1548.058)">
      <g id="XMLID_6_" transform="translate(0 1.217) rotate(-3)">
        <g id="XMLID_7_">
          <path id="XMLID_9_" d="M0,2.938,3.961.664h0L4,.627H4c1.761-.99,4.182-.844,6.859.7C16.249,4.442,20.614,12,20.614,18.234c0,3.118-1.1,5.282-2.861,6.309h0L14.159,26.6l-.88-1.431a9.562,9.562,0,0,1-2.788-1.1C5.1,20.948.734,13.392.734,7.193A10.573,10.573,0,0,1,1.027,4.7Z" transform="translate(2.641 0)" fill="#dfe3e8"/>
          <path id="XMLID_8_" d="M9.757,1.336c5.392,3.118,9.757,10.674,9.757,16.873s-4.365,8.73-9.757,5.612S0,13.147,0,6.948,4.365-1.782,9.757,1.336Z" transform="translate(0 2.189)" fill="#fff"/>
        </g>
      </g>
      <g id="XMLID_3_" transform="translate(11.821 20.861) rotate(-177)">
        <path id="XMLID_4_" d="M4.14,4.647c.061.061.061.122.061.244a.643.643,0,0,1-.122.3l-2.5,3.714L1.4,9.183a.409.409,0,0,1-.213.183L.3,9.883a.192.192,0,0,1-.213.03C.031,9.883,0,9.822,0,9.7V1.146a.587.587,0,0,1,.091-.3A.82.82,0,0,1,.3.6L1.248.05A.192.192,0,0,1,1.461.02c.061.03.091.091.091.213V6.778L3.2,4.373a.7.7,0,0,1,.213-.213.18.18,0,0,1,.213.03Z" transform="translate(0 0)" fill="#919eab"/>
      </g>
    </g>
    <g id="Group_425" data-name="Group 425" transform="translate(19783.109 1551.602)">
      <path id="Path_74" data-name="Path 74" d="M109.684,212.5s-2.322-.813-2.554-5.8H100.4l-.7,6.966,4.992,4.18,4.3-2.206Z" transform="translate(-68.57 -44.859)" fill="#fbd5b5"/>
      <path id="Path_75" data-name="Path 75" d="M99.881,212.745s7.779,2.554,9.868-1.045c0,0,14.4,5.341,14.28,6.966-.116,2.554-12.074,3.019-14.744,2.438l-2.322-2.322-1.045,2.67H99.3C99.532,221.336,99.648,213.093,99.881,212.745Z" transform="translate(-68.634 -44.054)" fill="rgba(3,3,3,0.99)"/>
      <path id="Path_76" data-name="Path 76" d="M88.268,212.569s-2.206-.929-2.322-5.921l-6.618-.348-.929,6.85,4.76,4.412,4.412-1.974Z" transform="translate(-71.999 -44.923)" fill="#fbd5b5"/>
      <path id="Path_77" data-name="Path 77" d="M78.4,212.281s7.662,2.9,9.984-.58c0,0,12.655,4.528,13.351,6.618s-11.61,3.483-14.164,2.67l-2.206-2.438L84.2,221.1l-6.5-.348C77.7,220.988,78.048,212.745,78.4,212.281Z" transform="translate(-72.111 -44.054)" fill="rgba(3,3,3,0.99)"/>
      <path id="Path_78" data-name="Path 78" d="M74.4,143.5s4.3,17.531,5.341,20.549c1.045,2.9,3.251,17.183,3.367,17.647s-4.876,37.268-4.876,37.268,6.85,1.509,9.52-.232l7.43-37.151-3.135-36.571Z" transform="translate(-72.643 -55.033)" fill="#59555b"/>
      <path id="Path_79" data-name="Path 79" d="M75.2,143.3s6.734,11.378,12.655,16.486,13.351,18.808,13.351,18.808l.929,40.751h0a9.388,9.388,0,0,0,9.4.232l.464-.232s1.045-42.376.929-45.162C112.7,171.391,97.839,139,97.839,139Z" transform="translate(-72.514 -55.757)" fill="#363636"/>
      <path id="Path_80" data-name="Path 80" d="M100.443,79.955s-5.224,18.46-13.584,17.879c-7.314-.464-8.707-8.127-6.966-17.531,1.858-9.752,9.868-8.475,14.628-8.475,0,0,5.8,0,6.734-4.528,0,.116,6.734,9.4-.813,12.655" transform="translate(-71.867 -67.3)" fill="#1e394c"/>
      <path id="Path_81" data-name="Path 81" d="M88.111,97.605S77.894,95.748,73.134,117.69c-1.974,9.172,8.475,23.568,8.475,23.568l10.913-21.014Z" transform="translate(-72.886 -62.428)" fill="#e6004e"/>
      <path id="Path_82" data-name="Path 82" d="M123,88.964s3.831-10.681,3.831-13.584,2.206-.348,2.09,1.858a40.387,40.387,0,0,1-.581,4.644s3.019.232,3.019,1.625-.929,6.385-2.322,7.082Z" transform="translate(-64.819 -66.209)" fill="#fbd5b5"/>
      <path id="Path_83" data-name="Path 83" d="M93.8,100.832c6.85,3.483,21.362,12.655,24.729,9.636S131.065,86.9,131.065,86.9l5.921,1.741s-12.771,34.249-16.6,34.133-16.6-2.554-16.6-2.554-1.161,24.148-4.644,30.882c0,0-17.3,6.269-26.238,1.161a33.011,33.011,0,0,0,5.457-23.452C76.267,114.183,80.214,93.866,93.8,100.832Z" transform="translate(-72.884 -64.145)" fill="rgba(255,19,99,0.99)"/>
      <g id="Group_424" data-name="Group 424" transform="translate(14.993 12.655)">
        <path id="Path_84" data-name="Path 84" d="M99.384,78.2a15.77,15.77,0,0,0,1.625,4.76,13.533,13.533,0,0,0,3.019,3.019l-1.625,2.09s1.277,7.43-6.618,8.823l-.813,7.314-8.823-3.019L85.8,96.2a6.141,6.141,0,0,0,1.509-3.135s-1.741-1.741-1.161-3.715,2.322-3.6,3.251-2.786a3.737,3.737,0,0,1,.929,2.206h1.161s-.232-3.367.464-4.76A10.567,10.567,0,0,1,99.384,78.2Z" transform="translate(-85.8 -78.2)" fill="#fbd5b5"/>
      </g>
    </g>
    <path id="Path_86" data-name="Path 86" d="M93.888,166.755c-5.8-1.277-11.378-4.76-15.673-8.243C76.822,153.288,75.081,146.09,74.5,144a14.04,14.04,0,0,0,2.09.58c2.206,3.6,6.966,10.681,11.378,14.4a42.138,42.138,0,0,1,5.8,6.618Z" transform="translate(19710.482 1496.649)" fill="#59555b"/>
    <g id="Group_428" data-name="Group 428" transform="translate(19723 1636.77)">
      <path id="Path_88" data-name="Path 88" d="M51.091,160.914S54.91,127.2,41.054,132.548C26.653,138,44.654,160.15,51.091,160.914Z" transform="translate(-27.485 -131.089)" fill="#ffe5ee"/>
      <path id="Path_89" data-name="Path 89" d="M47.95,179.366S43.7,145.655,31.476,155.038C20.457,163.438,39.768,176.857,47.95,179.366Z" transform="translate(-28.163 -129.141)" fill="#ffe5ee"/>
      <path id="Path_90" data-name="Path 90" d="M38.007,165.651c5.564,7.746,11.019,15.71,12.764,25.311.109.545.873.327.764-.218-1.746-9.71-7.2-17.674-12.874-25.529-.218-.436-.982,0-.655.436Z" transform="translate(-27.274 -128.081)" fill="#700429"/>
      <path id="Path_91" data-name="Path 91" d="M56.181,153.787s-5.019-24.765,7.746-22.474S59.454,152.7,56.181,153.787Z" transform="translate(-25.702 -131.163)" fill="#ffe5ee"/>
      <path id="Path_92" data-name="Path 92" d="M57.228,175.585c-.655.436-1.309-20.947,7.746-20.183S69.775,167.184,57.228,175.585Z" transform="translate(-25.549 -128.959)" fill="#ffe5ee"/>
      <path id="Path_93" data-name="Path 93" d="M53.676,175.527c-.982-12.546,4.255-26.729,9.055-38.075.218-.436-.545-.873-.655-.436-4.909,11.673-10.255,25.747-9.164,38.512a.383.383,0,1,0,.764,0Z" transform="translate(-25.924 -130.647)" fill="#700429"/>
      <path id="Path_94" data-name="Path 94" d="M55.508,190.445c-.655-14.728-1.964-29.675-10.146-42.33-.327-.436-.982,0-.655.436C52.89,161.1,54.2,175.826,54.744,190.445c0,.545.873.545.764,0Z" transform="translate(-26.665 -129.637)" fill="rgba(112,4,41,0.99)"/>
      <path id="Path_95" data-name="Path 95" d="M56.464,188.2c.327-7.746.873-15.492,5.128-22.147.327-.436-.436-.873-.655-.436-4.364,6.764-4.909,14.728-5.237,22.583-.109.546.764.546.764,0Z" transform="translate(-25.658 -128.045)" fill="#700429"/>
      <g id="Group_427" data-name="Group 427" transform="translate(16.613 56.554)">
        <path id="Path_96" data-name="Path 96" d="M43.4,184.964l2.073,18.983a4.636,4.636,0,0,0,4.691,4.146h12.11a4.714,4.714,0,0,0,4.691-4.146l2.073-18.983A1.775,1.775,0,0,0,67.293,183H45.037A1.76,1.76,0,0,0,43.4,184.964Z" transform="translate(-43.39 -183)" fill="#363636"/>
        <path id="Path_97" data-name="Path 97" d="M66.255,183H58.619a1.723,1.723,0,0,1,1.746,1.964l-2.073,18.983a4.636,4.636,0,0,1-4.691,4.146h7.637a4.714,4.714,0,0,0,4.691-4.146L68,184.964A1.775,1.775,0,0,0,66.255,183Z" transform="translate(-42.462 -183)" fill="#656565"/>
      </g>
      <path id="Path_98" data-name="Path 98" d="M45.937,158.4a11.5,11.5,0,0,0,4.691,2.618s3.818-33.384-9.928-28.475C44.409,137.123,52.264,148.8,45.937,158.4Z" transform="translate(-27.022 -131.082)" fill="#f2c2d4" opacity="0.26"/>
      <path id="Path_99" data-name="Path 99" d="M65.73,155.5c.327,4.255.218,15.492-8.728,14.728-.109,3.164.109,5.455.327,5.237C69.331,167.392,73.694,156.809,65.73,155.5Z" transform="translate(-25.541 -128.949)" fill="#f2c2d4" opacity="0.26"/>
      <path id="Path_100" data-name="Path 100" d="M64.564,131.4c.327,4.364.218,16.583-9.164,16.037.327,3.6.873,6.328.873,6.328C59.328,152.674,76.02,134.237,64.564,131.4Z" transform="translate(-25.685 -131.141)" fill="#b21352" opacity="0.17"/>
      <path id="Path_101" data-name="Path 101" d="M47.765,179.366s-4.255-33.711-16.474-24.329c-.436.327-.764.655-1.091.873,3.818,1.309,16.474,6.873,12.328,21.165C44.492,178.057,46.347,178.821,47.765,179.366Z" transform="translate(-27.977 -129.141)" fill="#fcdce8" opacity="0.42"/>
    </g>
    <g id="Group_545" data-name="Group 545" transform="translate(9)">
      <g id="Group_537" data-name="Group 537" transform="translate(19808.305 1480.786)">
        <path id="Path_198" data-name="Path 198" d="M193.5,103.922l4.779,5.1L234.516,93.9Z" transform="translate(-183.803 -87.126)" fill="#454f5b"/>
        <path id="Path_199" data-name="Path 199" d="M184.014,79.3l-3.619,5.382,2.459,5.289-5.429.928L172.6,101.432l51.873-15.682Z" transform="translate(-172.6 -79.3)" fill="#c4cdd5"/>
        <path id="Path_200" data-name="Path 200" d="M191.859,96.189,189.4,90.9l28.117,1.3Z" transform="translate(-181.605 -85.518)" fill="#454f5b"/>
      </g>
      <g id="Group_538" data-name="Group 538" transform="translate(19769.285 1499.808)">
        <path id="Path_201" data-name="Path 201" d="M135.037,164.331h-1.206a.67.67,0,0,1-.7-.742c.046-.418.371-.789.742-.7,1.9,0,3.758,0,5.8-.093h.046a.793.793,0,0,1,.742.7.7.7,0,0,1-.7.742C138.053,164.285,136.522,164.331,135.037,164.331Zm-7.052-.278h-.046c-2-.186-3.99-.418-5.846-.742a.757.757,0,0,1-.6-.835.8.8,0,0,1,.835-.6c1.856.325,3.758.557,5.707.742a.7.7,0,0,1,.65.789A.707.707,0,0,1,127.985,164.053Zm-11.46-2.134a.418.418,0,0,1-.232-.046,43.863,43.863,0,0,1-5.521-2.134.737.737,0,0,1,.6-1.346,43.587,43.587,0,0,0,5.336,2.042.726.726,0,0,1,.464.928A.614.614,0,0,1,116.524,161.919Zm-10.532-4.965a.748.748,0,0,1-.418-.139,39.777,39.777,0,0,1-4.686-3.665.723.723,0,0,1,.974-1.067,36.734,36.734,0,0,0,4.5,3.526.742.742,0,0,1,.186,1.021A.563.563,0,0,1,105.992,156.954Zm-8.584-7.841a.661.661,0,0,1-.557-.278,35.281,35.281,0,0,1-3.341-4.918.717.717,0,0,1,1.253-.7,36.8,36.8,0,0,0,3.2,4.733.733.733,0,0,1-.139,1.021A.567.567,0,0,1,97.408,149.113ZM91.655,139a.812.812,0,0,1-.7-.464,36.7,36.7,0,0,1-1.624-5.753.7.7,0,0,1,.557-.835.678.678,0,0,1,.835.557,33.363,33.363,0,0,0,1.578,5.475.721.721,0,0,1-.418.928A.354.354,0,0,1,91.655,139Zm-2.32-11.414a.753.753,0,0,1-.742-.7c-.093-1.206-.093-2.459-.093-3.712V122.9c0-.65,0-1.253.046-1.9a.724.724,0,0,1,.742-.7h.046a.723.723,0,0,1,.7.742c0,.6-.046,1.253-.046,1.856v.278c0,1.253.046,2.459.093,3.619a.733.733,0,0,1-.7.789Z" transform="translate(-88.5 -120.3)" fill="#dfe3e8"/>
      </g>
      <g id="Group_539" data-name="Group 539" transform="translate(19728.223 1453.179)">
        <path id="Path_202" data-name="Path 202" d="M48.022,62.161c-1.114,0-2.227,0-3.294-.046a.72.72,0,1,1,.046-1.438h0c1.856.046,3.8.046,5.8,0a.671.671,0,0,1,.742.7.724.724,0,0,1-.7.742C49.739,62.161,48.857,62.161,48.022,62.161Zm8.4-.232a.753.753,0,0,1-.742-.7.765.765,0,0,1,.7-.789c1.9-.093,3.851-.232,5.8-.418a.757.757,0,0,1,.789.65.728.728,0,0,1-.65.789c-1.949.232-3.944.371-5.893.464Zm-17.492-.093h-.046c-2.042-.139-3.99-.371-5.846-.65a.679.679,0,0,1-.6-.835.707.707,0,0,1,.835-.6c1.81.278,3.758.464,5.753.65a.7.7,0,0,1,.65.789A.75.75,0,0,1,38.928,61.836Zm29.138-.928a.75.75,0,0,1-.742-.65.7.7,0,0,1,.65-.789c1.9-.232,3.8-.464,5.8-.742A.728.728,0,1,1,74,60.166c-2,.278-3.9.557-5.8.742Zm-40.691-.742h-.139c-1.392-.325-2.784-.65-4.083-1.067-.557-.186-1.114-.325-1.624-.51a.734.734,0,0,1,.464-1.392c.51.186,1.067.325,1.578.51,1.253.371,2.6.742,3.99,1.021a.746.746,0,0,1,.557.882A.842.842,0,0,1,27.375,60.166ZM16.332,56.408a.86.86,0,0,1-.325-.093,34.888,34.888,0,0,1-5.15-3.016.734.734,0,1,1,.835-1.206,36.2,36.2,0,0,0,4.918,2.923.709.709,0,0,1,.325.974A.6.6,0,0,1,16.332,56.408Zm25.008-.65a.733.733,0,0,1-.742-.742v-.278c0-1.856-.093-3.712-.232-5.521a.728.728,0,0,1,.65-.789.757.757,0,0,1,.789.65c.139,1.856.232,3.758.232,5.661v.278A.67.67,0,0,1,41.341,55.758ZM6.913,49.587a.964.964,0,0,1-.557-.232,25.26,25.26,0,0,1-3.48-4.872.717.717,0,0,1,1.253-.7,22.532,22.532,0,0,0,3.294,4.593A.73.73,0,0,1,7.377,49.4.538.538,0,0,1,6.913,49.587Zm33.5-5.475a.666.666,0,0,1-.7-.6,47.5,47.5,0,0,0-1.3-5.614.7.7,0,0,1,.51-.882.673.673,0,0,1,.882.51c.51,1.81.974,3.758,1.346,5.8a.707.707,0,0,1-.6.835A.17.17,0,0,0,40.413,44.112ZM1.346,39.473a.739.739,0,0,1-.7-.557,7.416,7.416,0,0,1-.232-.974A13.2,13.2,0,0,1,0,34.74a12.041,12.041,0,0,1,.139-1.856.707.707,0,0,1,.835-.6.707.707,0,0,1,.6.835,10.144,10.144,0,0,0-.139,1.67,12.548,12.548,0,0,0,.371,2.877c.093.325.139.65.232.928a.741.741,0,0,1-.51.882Zm35.726-6.542a.7.7,0,0,1-.65-.418,25.75,25.75,0,0,0-2.969-4.825.725.725,0,1,1,1.114-.928,28.84,28.84,0,0,1,3.155,5.1.749.749,0,0,1-.325.974A.5.5,0,0,1,37.072,32.931ZM3.155,28.384a.648.648,0,0,1-.418-.139A.733.733,0,0,1,2.6,27.224a16.781,16.781,0,0,1,4.547-4.037.8.8,0,0,1,1.021.232.754.754,0,0,1-.232,1.021,14.663,14.663,0,0,0-4.176,3.665A.817.817,0,0,1,3.155,28.384Zm26.54-4.315a.748.748,0,0,1-.418-.139,16.264,16.264,0,0,0-5.1-2.227.7.7,0,0,1-.51-.882.741.741,0,0,1,.882-.51,18.605,18.605,0,0,1,5.568,2.413.79.79,0,0,1,.232,1.021A.975.975,0,0,1,29.695,24.069ZM12.852,22.213a.7.7,0,0,1-.7-.51.7.7,0,0,1,.51-.882A26.294,26.294,0,0,1,18.374,19.8h.232a.756.756,0,0,1,.742.7.724.724,0,0,1-.7.742h-.139a25.638,25.638,0,0,0-5.382.974Z" transform="translate(0 -19.8)" fill="#dfe3e8"/>
      </g>
    </g>
  </g>
</svg>
