<svg xmlns="http://www.w3.org/2000/svg" xmlns:xlink="http://www.w3.org/1999/xlink" width="204.953" height="283.63" viewBox="0 0 204.953 283.63">
  <defs>
    <clipPath id="clip-path">
      <circle id="Ellipse_49" data-name="Ellipse 49" cx="29.414" cy="29.414" r="29.414" transform="translate(0 52.544) rotate(-63.281)"/>
    </clipPath>
    <linearGradient id="linear-gradient" x1="0.5" y1="1" x2="0.5" gradientUnits="objectBoundingBox">
      <stop offset="0" stop-color="#fff" stop-opacity="0.2"/>
      <stop offset="0.674" stop-color="#fff" stop-opacity="0.627"/>
      <stop offset="0.79" stop-color="#fff" stop-opacity="0.702"/>
    </linearGradient>
    <linearGradient id="linear-gradient-2" x1="0.501" y1="1" x2="0.501" xlink:href="#linear-gradient"/>
  </defs>
  <g id="Group_834" data-name="Group 834" transform="translate(-16166.718 -6728.115)">
    <g id="Group_840" data-name="Group 840" transform="translate(16198.856 6728.115)">
      <g id="Group_830" data-name="Group 830" transform="translate(58.141 50.688)">
        <path id="Path_543" data-name="Path 543" d="M112.909,71.177A36.54,36.54,0,1,0,48.688,95.114a38.832,38.832,0,0,1,9.049,25.251v1.606H94.226v-1.46a39.156,39.156,0,0,1,9.779-25.4A36.99,36.99,0,0,0,112.909,71.177Z" transform="translate(-39.835 -34.728)" fill="#ffe5ee"/>
        <g id="Group_827" data-name="Group 827" transform="translate(36.731 5.618)">
          <path id="Path_544" data-name="Path 544" d="M65,38.757A22.34,22.34,0,0,1,77.26,40.8a28.876,28.876,0,0,1,10.217,7.444A28.588,28.588,0,0,1,93.9,59.191a23.964,23.964,0,0,1,.73,12.406,41.393,41.393,0,0,0-3.5-11.385A47.134,47.134,0,0,0,84.7,50.725a43.2,43.2,0,0,0-8.9-7.3A30,30,0,0,0,65,38.757Z" transform="translate(-65 -38.577)" fill="#fff"/>
        </g>
        <path id="Path_545" data-name="Path 545" d="M63.647,110.148s0-13.282-.292-20.726c-.292-9.487-.146-15.326-2.189-20.142-1.751-4.233-4.233-5.254-6.13-2.919s-.146,8.32,4.817,10.071a30.476,30.476,0,0,0,15.909.584,16.162,16.162,0,0,0,8.174-4.233c2.627-2.627,2.189-6.86.584-7.736-2.189-1.314-4.817.146-6.422,4.379-.73,1.751-2.481,5.838-2.627,18.537,0,6.276-.438,21.894-.438,21.894" transform="translate(-33.192 -21.008)" fill="none" stroke="#f8f8f8" stroke-linecap="round" stroke-miterlimit="10" stroke-width="0.857"/>
        <ellipse id="Ellipse_48" data-name="Ellipse 48" cx="17.077" cy="9.195" rx="17.077" ry="9.195" transform="translate(19.07 95.124)" fill="#ff4d89"/>
        <g id="Group_829" data-name="Group 829" transform="translate(14.545 86.804)">
          <g id="Group_828" data-name="Group 828" transform="translate(0 0)">
            <path id="Path_547" data-name="Path 547" d="M52.865,100.33H89.938a3.065,3.065,0,1,0,0-6.13H52.865A3.083,3.083,0,0,0,49.8,97.265,3.3,3.3,0,0,0,52.865,100.33Z" transform="translate(-49.8 -94.2)" fill="#ffb3cc"/>
            <path id="Path_548" data-name="Path 548" d="M90.084,102.4H52.865a3.065,3.065,0,0,0,0,6.13H89.938A3.083,3.083,0,0,0,93,105.465,2.962,2.962,0,0,0,90.084,102.4Z" transform="translate(-49.8 -90.431)" fill="#ffb3cc"/>
          </g>
          <path id="Path_549" data-name="Path 549" d="M90.084,98.3H52.865a3.065,3.065,0,0,0,0,6.13H89.938A3.083,3.083,0,0,0,93,101.365,2.962,2.962,0,0,0,90.084,98.3Z" transform="translate(-49.8 -92.316)" fill="#ff80ab"/>
        </g>
      </g>
      <g id="Group_831" data-name="Group 831" transform="translate(0 0)">
        <path id="Path_550" data-name="Path 550" d="M62.806,40.722,55.8,0,66.893,1.022Z" transform="translate(25.644)" fill="rgba(255,229,238,0.3)"/>
        <path id="Path_551" data-name="Path 551" d="M73.2,36.856,81.957,10l4.379,4.525Z" transform="translate(33.641 4.596)" fill="rgba(255,229,238,0.3)"/>
        <path id="Path_552" data-name="Path 552" d="M91.5,47.175,128.573,17.4l1.314,12.406Z" transform="translate(42.051 7.997)" fill="rgba(255,229,238,0.3)"/>
        <path id="Path_553" data-name="Path 553" d="M50.024,45.886,29.152,18.3,22,25.89Z" transform="translate(10.111 8.41)" fill="rgba(255,229,238,0.3)"/>
        <path id="Path_554" data-name="Path 554" d="M47.436,61.893,1.314,45.4,0,60.434Z" transform="translate(0 20.865)" fill="rgba(255,229,238,0.3)"/>
        <path id="Path_555" data-name="Path 555" d="M100.7,58.873,126.535,56.1l-.292,5.4Z" transform="translate(46.279 25.782)" fill="rgba(255,229,238,0.3)"/>
      </g>
    </g>
    <g id="Group_839" data-name="Group 839" transform="translate(16160.031 6757.742)">
      <g id="Group_835" data-name="Group 835" transform="translate(31.706 240.271)">
        <path id="Path_557" data-name="Path 557" d="M108.347,211.727s-2.011-.7-2.212-5.027H100.3l-.6,6.032,4.324,3.619,3.72-1.91Z" transform="translate(-99.298 -206.7)" fill="#fbd5b5"/>
        <path id="Path_556" data-name="Path 556" d="M99.8,212.6s6.737,2.212,8.547-.9c0,0,12.468,4.625,12.368,6.032-.1,2.212-10.457,2.614-12.77,2.111l-2.011-2.011-.9,2.312H99.3C99.5,220.045,99.6,212.907,99.8,212.6Z" transform="translate(-99.3 -206.673)" fill="rgba(3,3,3,0.99)"/>
      </g>
      <g id="Group_834-2" data-name="Group 834" transform="translate(5.625 240.77) rotate(-7)">
        <path id="Path_559" data-name="Path 559" d="M8.366,5.315S6.5,4.527,6.4.3L.787,0,0,5.807l4.035,3.74,3.74-1.673Z" transform="translate(1.388 0) rotate(3)" fill="#fbd5b5"/>
        <path id="Path_558" data-name="Path 558" d="M.591.492S7.086,2.953,9.055,0c0,0,10.728,3.839,11.318,5.61S10.531,8.563,8.366,7.874L6.5,5.807,5.511,7.972,0,7.677C0,7.874.3.886.591.492Z" transform="translate(0.423 5.271) rotate(3)" fill="rgba(3,3,3,0.99)"/>
      </g>
      <path id="Path_498" data-name="Path 498" d="M95.845,205.042c0,21.445-3.112,46.463-5.119,74.973-.1.914-.1,1.745-.2,2.66H82.893l-.1-2.66-.4-34.162-1.807-20.447-.7-8.062-.1.5-14.555,62.09-.355,1.836-7.173.824a23.564,23.564,0,0,1,.1-2.66c.5-16.042,2.811-34.993,6.224-55.44l1.1-17.122s15.961-5.32,26.2-3.823A17.134,17.134,0,0,1,95.845,205.042Z" transform="translate(-50.636 -39.297)" fill="#363636"/>
      <path id="Path_501" data-name="Path 501" d="M74.45,153.3s-4.618,4.316-7.027-.5c-2.51-4.718-9.637-13.752-4.216-15.459a3.475,3.475,0,0,1,.1-4.015,3.6,3.6,0,0,0,.7,3.112s-1.706-5.019,6.224-5.822S78.064,126,78.064,126a5.844,5.844,0,0,1,.1,3.112s.7-.7,1-3.413a9.453,9.453,0,0,1,.6,8.03,16.845,16.845,0,0,0,1.1-2.61s.1,6.123-2.309,8.633l.6,9.135Z" transform="translate(-50.624 -39.593)" fill="#1e394c"/>
      <path id="Path_502" data-name="Path 502" d="M80.842,154.2c0,.1-.1.1-.1.2-.8.8-3.212-.2-3.212-.2l1.1,4.417v.1l-1.506.3h0l-.6.1h0l-6.625,1.3.6-5.22c6.525-.7,6.525-8.532,6.525-8.532-2.208.7-3.413-5.119-1.706-5.019s2.71,4.316,2.71,4.316a17.952,17.952,0,0,0-.2-4.116,5.78,5.78,0,0,0-.3-1.3c1.706-.9,2.445-3.53,2.445-3.53.1.3.265.92.366,1.221C83.05,146.568,81.444,153.093,80.842,154.2Z" transform="translate(-50.589 -39.582)" fill="#fbd5b5"/>
      <path id="Path_505" data-name="Path 505" d="M94.4,166.841s5.22-5.019,5.722-6.424,1.706-4.015,3.413-4.417l-.5,2.911a5.918,5.918,0,0,0,1.606-.8c.2-.2.4-2.008.6-2.008s.9,2.71.2,3.413a7.334,7.334,0,0,1-3.413,2.309l-1,3.614-2.309,5.019Z" transform="translate(-50.495 -39.478)" fill="#fbd5b5"/>
      <path id="Path_507" data-name="Path 507" d="M80.848,160.812,79.242,157.8A18.667,18.667,0,0,0,68.1,160.009v3.915Z" transform="translate(-50.597 -39.471)" fill="#ff1564"/>
      <g id="Group_838" data-name="Group 838" transform="translate(74.789 0) rotate(39)">
        <g id="Group_837" data-name="Group 837" transform="translate(0 0)">
          <g id="Group_836" data-name="Group 836" transform="translate(0 0)" clip-path="url(#clip-path)">
            <path id="Path_560" data-name="Path 560" d="M41.4,0S.233,72.133,0,72.678H18.208L59.605,0Z" transform="translate(6.013 -0.281)" fill="url(#linear-gradient)"/>
            <path id="Path_561" data-name="Path 561" d="M41.4,0S.233,72.133,0,72.678H5.758L47.155,0Z" transform="translate(33.715 -0.281)" fill="url(#linear-gradient-2)"/>
          </g>
        </g>
        <rect id="Rectangle_227" data-name="Rectangle 227" width="6.381" height="26.068" transform="translate(46.469 70.924) rotate(-18.149)" fill="#ff796d"/>
        <path id="Path_562" data-name="Path 562" d="M22.374,1.635a32.42,32.42,0,1,0,40.852,20.7A32.5,32.5,0,0,0,22.374,1.635ZM41.127,58.828A27.806,27.806,0,1,1,58.868,23.812,27.714,27.714,0,0,1,41.127,58.828Z" transform="translate(7.061 7.033)" fill="#19202d"/>
        <path id="Path_563" data-name="Path 563" d="M17.119,39.841h0a4.8,4.8,0,0,1-5.992-3.035L0,2.957,9.026,0,20.154,33.849A4.8,4.8,0,0,1,17.119,39.841Z" transform="translate(48.344 78.778)" fill="#19202d"/>
      </g>
      <path id="Path_509" data-name="Path 509" d="M118.779,141.012a7.805,7.805,0,0,1-1.358,3.724c-.7,1.405-2.677,3.011-3.882,4.718a7.389,7.389,0,0,0-.8,2.409c-.4,2.71-1.233,7.8-1.735,10.81-.3,2.409-.957,5.378-1.359,7.888-.1.8.283,5.093-6.543,1.479.2-.7.3-1.405.5-2.008.1-.2.1-.4.2-.6.3-.9.5-1.706.8-2.409.8-2.108,1.405-4.015,2.309-6.826a64.934,64.934,0,0,0,1.807-9.637c-1.3-2.811-1.1-7.729-1.1-8.633,0-1.1.1-2.108.5-1.807a2.8,2.8,0,0,1,1,2.108s-.1,2.108.7,2.51a4.655,4.655,0,0,0,3.714-3.279c1.069-2.895,1.807-1.74,1.807-1.74C115.447,139.616,118.88,140.309,118.779,141.012Z" transform="translate(-50.463 -39.556)" fill="#fbd5b5"/>
      <path id="Path_511" data-name="Path 511" d="M112.851,152.579s-3.556,26.764-4.76,29.675a5.811,5.811,0,0,1-1.2,2.208c-1.405,1.1-12.748-6.224-12.748-6.224l.2,2.811h0l1.405,21.883.2,3.212s-12.648,7.729-30.616,3.714l.2-2.61.6-9.135.1-1.907h0l.1-1.807h0v-.1l-.1-.1c-.7-.6-5.119-4.517-6.123-7.83C58.4,180.046,56.8,168.3,58.9,166.9a35.7,35.7,0,0,1,3.838-2.405c10.741-5.32,26.076-6.529,27.682-4.822l.5.5c6.826,7.127,11.845,13.551,11.845,13.551l6.043-21.791Z" transform="translate(-50.636 -40.034)" fill="#ff1564"/>
      <path id="Path_514" data-name="Path 514" d="M95.625,202.267c-1.2.6-2.409,1.1-3.614,1.606-11.644,4.618-21.08,4.015-26.7,2.71l.6-9.135a11.526,11.526,0,0,0,.1-1.907h0v-2.008A129.678,129.678,0,0,0,62.6,164.022c10.741-5.32,26-6.726,27.6-5.019l.5.5a107.459,107.459,0,0,1,2.409,11.845c.5,3.112.8,6.224,1.1,9.034h0Z" transform="translate(-50.617 -39.469)" fill="#ff1564"/>
      <path id="Path_516" data-name="Path 516" d="M109.7,132.1" transform="translate(-50.437 -39.569)" fill="none" stroke="#ff2a6e" stroke-miterlimit="10" stroke-width="0.377"/>
    </g>
  </g>
</svg>
