<svg xmlns="http://www.w3.org/2000/svg" width="78.753" height="78.753" viewBox="0 0 78.753 78.753">
  <g id="Group_142" data-name="Group 142" transform="translate(-6963.502 -1793.502)">
    <path id="Path_28" data-name="Path 28" d="M6.57,3a3.57,3.57,0,1,0,3.57,3.57A3.573,3.573,0,0,0,6.57,3Zm0,5.354A1.785,1.785,0,1,1,8.354,6.57,1.787,1.787,0,0,1,6.57,8.354Z" transform="translate(6966.182 1796.182)" fill="#e3e3e9"/>
    <path id="Path_32" data-name="Path 32" d="M6.57,3a3.57,3.57,0,1,0,3.57,3.57A3.573,3.573,0,0,0,6.57,3Zm0,5.354A1.785,1.785,0,1,1,8.354,6.57,1.787,1.787,0,0,1,6.57,8.354Z" transform="translate(6975.54 1796.182)" fill="#e3e3e9"/>
    <path id="Path_33" data-name="Path 33" d="M6.57,3a3.57,3.57,0,1,0,3.57,3.57A3.573,3.573,0,0,0,6.57,3Zm0,5.354A1.785,1.785,0,1,1,8.354,6.57,1.787,1.787,0,0,1,6.57,8.354Z" transform="translate(6984.228 1796.182)" fill="#e3e3e9"/>
    <path id="Path_31" data-name="Path 31" d="M0,0V78.753H78.753V0ZM2.625,2.625h73.5V15.751H2.625Zm73.5,73.5H2.625V18.376h73.5Z" transform="translate(6963.502 1793.502)" fill="#e3e3e9"/>
    <g id="Group_123" data-name="Group 123" transform="translate(6972.524 1818.231)">
      <line id="Line_13" data-name="Line 13" x2="14.036" fill="none" stroke="#e3e3e9" stroke-linecap="round" stroke-width="2"/>
      <line id="Line_14" data-name="Line 14" x2="14.036" transform="translate(24.062)" fill="none" stroke="#e3e3e9" stroke-linecap="round" stroke-width="2"/>
      <line id="Line_15" data-name="Line 15" x2="14.036" transform="translate(47.455)" fill="none" stroke="#e3e3e9" stroke-linecap="round" stroke-width="2"/>
    </g>
    <g id="Group_122" data-name="Group 122" transform="translate(6971.229 1825.289)">
      <line id="Line_16" data-name="Line 16" x2="8.4" transform="translate(15.665 3.635)" fill="none" stroke="#e3e3e9" stroke-linecap="round" stroke-width="2"/>
      <line id="Line_17" data-name="Line 17" x2="8.4" transform="translate(30.37 3.635)" fill="none" stroke="#e3e3e9" stroke-linecap="round" stroke-width="2"/>
      <line id="Line_18" data-name="Line 18" x2="8.4" transform="translate(44.406 3.635)" fill="none" stroke="#e3e3e9" stroke-linecap="round" stroke-width="2"/>
      <rect id="Rectangle_43" data-name="Rectangle 43" width="10.312" height="6.874" transform="translate(0 0)" fill="#e3e3e9"/>
      <circle id="Ellipse_16" data-name="Ellipse 16" cx="2.578" cy="2.578" r="2.578" transform="translate(58.433 1.719)" fill="#e3e3e9"/>
    </g>
    <g id="Group_125" data-name="Group 125" transform="translate(6971.229 1837.32)">
      <line id="Line_16-2" data-name="Line 16" x2="8.4" transform="translate(15.665 4.973)" fill="none" stroke="#e3e3e9" stroke-linecap="round" stroke-width="2"/>
      <line id="Line_17-2" data-name="Line 17" x2="8.4" transform="translate(30.37 4.973)" fill="none" stroke="#e3e3e9" stroke-linecap="round" stroke-width="2"/>
      <line id="Line_18-2" data-name="Line 18" x2="8.4" transform="translate(44.406 4.973)" fill="none" stroke="#e3e3e9" stroke-linecap="round" stroke-width="2"/>
      <rect id="Rectangle_43-2" data-name="Rectangle 43" width="10.312" height="8.593" transform="translate(0 0)" fill="#e3e3e9"/>
      <circle id="Ellipse_16-2" data-name="Ellipse 16" cx="2.578" cy="2.578" r="2.578" transform="translate(58.433 1.719)" fill="#e3e3e9"/>
    </g>
    <line id="Line_19" data-name="Line 19" x2="8.4" transform="translate(7011.956 1854.992)" fill="none" stroke="#e3e3e9" stroke-linecap="round" stroke-width="1.5"/>
    <line id="Line_21" data-name="Line 21" x2="8.4" transform="translate(7011.956 1859.002)" fill="none" stroke="#e3e3e9" stroke-linecap="round" stroke-width="1.5"/>
    <line id="Line_20" data-name="Line 20" x2="8.4" transform="translate(7024.991 1854.992)" fill="none" stroke="#e3e3e9" stroke-linecap="round" stroke-width="1.5"/>
    <line id="Line_22" data-name="Line 22" x2="8.4" transform="translate(7024.991 1859.002)" fill="none" stroke="#e3e3e9" stroke-linecap="round" stroke-width="1.5"/>
    <rect id="Rectangle_45" data-name="Rectangle 45" width="13.749" height="3.249" transform="translate(7021.068 1863.099)" fill="#e3e3e9"/>
    <rect id="Rectangle_46" data-name="Rectangle 46" width="12.03" height="3.249" transform="translate(7006.601 1863.099)" fill="#e3e3e9"/>
  </g>
</svg>
