<svg xmlns="http://www.w3.org/2000/svg" width="78.497" height="78.497" viewBox="0 0 78.497 78.497">
  <g id="Group_143" data-name="Group 143" transform="translate(-7108 -1793.502)">
    <g id="Group_126" data-name="Group 126" transform="translate(7108 1793.502)">
      <path id="Path_28" data-name="Path 28" d="M6.558,3a3.558,3.558,0,1,0,3.558,3.558A3.561,3.561,0,0,0,6.558,3Zm0,5.337A1.779,1.779,0,1,1,8.337,6.558,1.781,1.781,0,0,1,6.558,8.337Z" transform="translate(2.661 2.661)" fill="#e3e3e9"/>
      <path id="Path_32" data-name="Path 32" d="M6.558,3a3.558,3.558,0,1,0,3.558,3.558A3.561,3.561,0,0,0,6.558,3Zm0,5.337A1.779,1.779,0,1,1,8.337,6.558,1.781,1.781,0,0,1,6.558,8.337Z" transform="translate(11.988 2.661)" fill="#e3e3e9"/>
      <path id="Path_33" data-name="Path 33" d="M6.558,3a3.558,3.558,0,1,0,3.558,3.558A3.561,3.561,0,0,0,6.558,3Zm0,5.337A1.779,1.779,0,1,1,8.337,6.558,1.781,1.781,0,0,1,6.558,8.337Z" transform="translate(20.649 2.661)" fill="#e3e3e9"/>
      <path id="Path_31" data-name="Path 31" d="M0,0V78.5H78.5V0ZM2.617,2.617H75.881V15.7H2.617ZM75.881,75.881H2.617V18.316H75.881Z" transform="translate(0 0)" fill="#e3e3e9"/>
    </g>
    <g id="Rectangle_47" data-name="Rectangle 47" transform="translate(7125.448 1821.919)" fill="none" stroke="#e3e3e9" stroke-width="1.5">
      <rect width="42.205" height="33.764" stroke="none"/>
      <rect x="0.75" y="0.75" width="40.705" height="32.264" fill="none"/>
    </g>
    <g id="Group_128" data-name="Group 128" transform="translate(7133.889 1826.984)">
      <circle id="Ellipse_17" data-name="Ellipse 17" cx="5.065" cy="5.065" r="5.065" transform="translate(8.441 0)" fill="#e3e3e9"/>
      <g id="Group_127" data-name="Group 127" transform="translate(2.759 12.463)">
        <line id="Line_23" data-name="Line 23" x2="9.993" transform="translate(5.996 0)" fill="none" stroke="#e3e3e9" stroke-linecap="round" stroke-width="1"/>
        <line id="Line_24" data-name="Line 24" x2="21.319" transform="translate(0 2.665)" fill="none" stroke="#e3e3e9" stroke-linecap="round" stroke-width="1"/>
        <line id="Line_25" data-name="Line 25" x2="21.319" transform="translate(0 6.352)" fill="none" stroke="#e3e3e9" stroke-linecap="round" stroke-width="1"/>
      </g>
      <rect id="Rectangle_48" data-name="Rectangle 48" width="27.011" height="1.688" transform="translate(0 21.947)" fill="#e3e3e9"/>
    </g>
  </g>
</svg>
