<svg xmlns="http://www.w3.org/2000/svg" width="78.92" height="78.92" viewBox="0 0 78.92 78.92">
  <g id="Group_144" data-name="Group 144" transform="translate(-7278 -1793.502)">
    <g id="Group_130" data-name="Group 130" transform="translate(7278 1793.502)">
      <g id="Group_126" data-name="Group 126" transform="translate(0)">
        <path id="Path_28" data-name="Path 28" d="M6.577,3a3.577,3.577,0,1,0,3.577,3.577A3.581,3.581,0,0,0,6.577,3Zm0,5.366A1.789,1.789,0,1,1,8.366,6.577,1.79,1.79,0,0,1,6.577,8.366Z" transform="translate(2.692 2.692)" fill="#e3e3e9"/>
        <path id="Path_32" data-name="Path 32" d="M6.577,3a3.577,3.577,0,1,0,3.577,3.577A3.581,3.581,0,0,0,6.577,3Zm0,5.366A1.789,1.789,0,1,1,8.366,6.577,1.79,1.79,0,0,1,6.577,8.366Z" transform="translate(12.069 2.692)" fill="#e3e3e9"/>
        <path id="Path_33" data-name="Path 33" d="M6.577,3a3.577,3.577,0,1,0,3.577,3.577A3.581,3.581,0,0,0,6.577,3Zm0,5.366A1.789,1.789,0,1,1,8.366,6.577,1.79,1.79,0,0,1,6.577,8.366Z" transform="translate(20.776 2.692)" fill="#e3e3e9"/>
        <path id="Path_31" data-name="Path 31" d="M0,0V78.92H78.92V0ZM2.631,2.631H76.289V15.784H2.631ZM76.289,76.289H2.631V18.415H76.289Z" fill="#e3e3e9"/>
      </g>
    </g>
    <g id="Group_132" data-name="Group 132" transform="translate(7285.419 1813.623)">
      <rect id="Rectangle_49" data-name="Rectangle 49" width="16.94" height="5.082" transform="translate(0 0)" fill="#e3e3e9"/>
      <g id="Group_131" data-name="Group 131" transform="translate(30.493 1.694)">
        <rect id="Rectangle_50" data-name="Rectangle 50" width="8.47" height="1.694" transform="translate(0 0)" fill="#e3e3e9"/>
        <rect id="Rectangle_51" data-name="Rectangle 51" width="10.164" height="1.694" transform="translate(11.858 0)" fill="#e3e3e9"/>
        <rect id="Rectangle_52" data-name="Rectangle 52" width="8.47" height="1.694" transform="translate(25.41 0)" fill="#e3e3e9"/>
      </g>
    </g>
    <rect id="Rectangle_53" data-name="Rectangle 53" width="74.537" height="23.716" transform="translate(7280.337 1822.093)" fill="#e3e3e9"/>
    <g id="Group_146" data-name="Group 146" transform="translate(7285.167 1849.198)">
      <g id="Rectangle_54" data-name="Rectangle 54" fill="none" stroke="#e3e3e9" stroke-width="1">
        <rect width="11.858" height="11.858" stroke="none"/>
        <rect x="0.5" y="0.5" width="10.858" height="10.858" fill="none"/>
      </g>
      <g id="Group_133" data-name="Group 133" transform="translate(0 13.961)">
        <line id="Line_26" data-name="Line 26" x2="10.047" transform="translate(0 0)" fill="none" stroke="#e3e3e9" stroke-linecap="round" stroke-width="1"/>
        <line id="Line_27" data-name="Line 27" x2="5.358" transform="translate(0 2.009)" fill="none" stroke="#e3e3e9" stroke-linecap="round" stroke-width="1"/>
      </g>
    </g>
    <g id="Group_147" data-name="Group 147" transform="translate(7302.167 1849.198)">
      <g id="Rectangle_54-2" data-name="Rectangle 54" fill="none" stroke="#e3e3e9" stroke-width="1">
        <rect width="11.858" height="11.858" stroke="none"/>
        <rect x="0.5" y="0.5" width="10.858" height="10.858" fill="none"/>
      </g>
      <g id="Group_133-2" data-name="Group 133" transform="translate(0 13.961)">
        <line id="Line_26-2" data-name="Line 26" x2="10.047" transform="translate(0 0)" fill="none" stroke="#e3e3e9" stroke-linecap="round" stroke-width="1"/>
        <line id="Line_27-2" data-name="Line 27" x2="5.358" transform="translate(0 2.009)" fill="none" stroke="#e3e3e9" stroke-linecap="round" stroke-width="1"/>
      </g>
    </g>
    <g id="Group_148" data-name="Group 148" transform="translate(7320.167 1849.198)">
      <g id="Rectangle_54-3" data-name="Rectangle 54" fill="none" stroke="#e3e3e9" stroke-width="1">
        <rect width="11.858" height="11.858" stroke="none"/>
        <rect x="0.5" y="0.5" width="10.858" height="10.858" fill="none"/>
      </g>
      <g id="Group_133-3" data-name="Group 133" transform="translate(0 13.961)">
        <line id="Line_26-3" data-name="Line 26" x2="10.047" transform="translate(0 0)" fill="none" stroke="#e3e3e9" stroke-linecap="round" stroke-width="1"/>
        <line id="Line_27-3" data-name="Line 27" x2="5.358" transform="translate(0 2.009)" fill="none" stroke="#e3e3e9" stroke-linecap="round" stroke-width="1"/>
      </g>
    </g>
    <g id="Group_149" data-name="Group 149" transform="translate(7337.167 1849.198)">
      <g id="Rectangle_54-4" data-name="Rectangle 54" fill="none" stroke="#e3e3e9" stroke-width="1">
        <rect width="11.858" height="11.858" stroke="none"/>
        <rect x="0.5" y="0.5" width="10.858" height="10.858" fill="none"/>
      </g>
      <g id="Group_133-4" data-name="Group 133" transform="translate(0 13.961)">
        <line id="Line_26-4" data-name="Line 26" x2="10.047" transform="translate(0 0)" fill="none" stroke="#e3e3e9" stroke-linecap="round" stroke-width="1"/>
        <line id="Line_27-4" data-name="Line 27" x2="5.358" transform="translate(0 2.009)" fill="none" stroke="#e3e3e9" stroke-linecap="round" stroke-width="1"/>
      </g>
    </g>
  </g>
</svg>
