<svg xmlns="http://www.w3.org/2000/svg" width="78.057" height="78.057" viewBox="0 0 78.057 78.057">
  <g id="Group_145" data-name="Group 145" transform="translate(-7488 -1800.502)">
    <g id="Group_130" data-name="Group 130" transform="translate(7488 1800.502)">
      <g id="Group_126" data-name="Group 126" transform="translate(0)">
        <path id="Path_28" data-name="Path 28" d="M6.538,3a3.538,3.538,0,1,0,3.538,3.538A3.542,3.542,0,0,0,6.538,3Zm0,5.307A1.769,1.769,0,1,1,8.307,6.538,1.771,1.771,0,0,1,6.538,8.307Z" transform="translate(2.629 2.629)" fill="#e3e3e9"/>
        <path id="Path_32" data-name="Path 32" d="M6.538,3a3.538,3.538,0,1,0,3.538,3.538A3.542,3.542,0,0,0,6.538,3Zm0,5.307A1.769,1.769,0,1,1,8.307,6.538,1.771,1.771,0,0,1,6.538,8.307Z" transform="translate(11.904 2.629)" fill="#e3e3e9"/>
        <path id="Path_33" data-name="Path 33" d="M6.538,3a3.538,3.538,0,1,0,3.538,3.538A3.542,3.542,0,0,0,6.538,3Zm0,5.307A1.769,1.769,0,1,1,8.307,6.538,1.771,1.771,0,0,1,6.538,8.307Z" transform="translate(20.516 2.629)" fill="#e3e3e9"/>
        <path id="Path_31" data-name="Path 31" d="M0,0V78.057H78.057V0ZM2.6,2.6H75.455v13.01H2.6ZM75.455,75.455H2.6V18.213H75.455Z" fill="#e3e3e9"/>
      </g>
    </g>
    <g id="Group_154" data-name="Group 154" transform="translate(7495.272 1824.231)">
      <g id="Group_140" data-name="Group 140" transform="translate(0)">
        <g id="Group_138" data-name="Group 138" transform="translate(0 0)">
          <rect id="Rectangle_53" data-name="Rectangle 53" width="25.451" height="19.997" fill="#e3e3e9"/>
          <line id="Line_28" data-name="Line 28" x2="34.448" transform="translate(30.967 0.814)" fill="none" stroke="#e3e3e9" stroke-linecap="round" stroke-width="1"/>
          <path id="Path_34" data-name="Path 34" d="M0,0H18.218" transform="translate(30.967 4.449)" fill="#e3e3e9" stroke="#e3e3e9" stroke-linecap="round" stroke-width="1"/>
          <path id="Path_35" data-name="Path 35" d="M0,0H25.855" transform="translate(30.967 8.085)" fill="#e3e3e9" stroke="#e3e3e9" stroke-linecap="round" stroke-width="1"/>
          <rect id="Rectangle_58" data-name="Rectangle 58" width="18.179" height="3.636" transform="translate(30.905 12.726)" fill="#e3e3e9"/>
          <rect id="Rectangle_59" data-name="Rectangle 59" width="5.454" height="3.636" transform="translate(0 21.815)" fill="#e3e3e9"/>
          <rect id="Rectangle_60" data-name="Rectangle 60" width="5.454" height="3.636" transform="translate(7.272 21.815)" fill="#e3e3e9"/>
          <rect id="Rectangle_61" data-name="Rectangle 61" width="5.454" height="3.636" transform="translate(14.543 21.815)" fill="#e3e3e9"/>
        </g>
      </g>
      <g id="Group_150" data-name="Group 150" transform="translate(0 30.586)">
        <g id="Group_150-2" data-name="Group 150" transform="translate(0 0)">
          <g id="Rectangle_54" data-name="Rectangle 54" transform="translate(0)" fill="none" stroke="#e3e3e9" stroke-width="1">
            <rect width="12.726" height="12.726" stroke="none"/>
            <rect x="0.5" y="0.5" width="11.726" height="11.726" fill="none"/>
          </g>
          <g id="Group_133" data-name="Group 133" transform="translate(0 14.983)">
            <line id="Line_26" data-name="Line 26" x2="10.782" transform="translate(0 0)" fill="none" stroke="#e3e3e9" stroke-linecap="round" stroke-width="1"/>
            <line id="Line_27" data-name="Line 27" x2="5.75" transform="translate(0 2.156)" fill="none" stroke="#e3e3e9" stroke-linecap="round" stroke-width="1"/>
          </g>
        </g>
        <g id="Group_151" data-name="Group 151" transform="translate(16.821 0)">
          <g id="Rectangle_54-2" data-name="Rectangle 54" transform="translate(0)" fill="none" stroke="#e3e3e9" stroke-width="1">
            <rect width="12.726" height="12.726" stroke="none"/>
            <rect x="0.5" y="0.5" width="11.726" height="11.726" fill="none"/>
          </g>
          <g id="Group_133-2" data-name="Group 133" transform="translate(0 14.983)">
            <line id="Line_26-2" data-name="Line 26" x2="10.782" transform="translate(0 0)" fill="none" stroke="#e3e3e9" stroke-linecap="round" stroke-width="1"/>
            <line id="Line_27-2" data-name="Line 27" x2="5.75" transform="translate(0 2.156)" fill="none" stroke="#e3e3e9" stroke-linecap="round" stroke-width="1"/>
          </g>
        </g>
        <g id="Group_152" data-name="Group 152" transform="translate(35.325 0)">
          <g id="Rectangle_54-3" data-name="Rectangle 54" transform="translate(0)" fill="none" stroke="#e3e3e9" stroke-width="1">
            <rect width="12.726" height="12.726" stroke="none"/>
            <rect x="0.5" y="0.5" width="11.726" height="11.726" fill="none"/>
          </g>
          <g id="Group_133-3" data-name="Group 133" transform="translate(0 14.983)">
            <line id="Line_26-3" data-name="Line 26" x2="10.782" transform="translate(0 0)" fill="none" stroke="#e3e3e9" stroke-linecap="round" stroke-width="1"/>
            <line id="Line_27-3" data-name="Line 27" x2="5.75" transform="translate(0 2.156)" fill="none" stroke="#e3e3e9" stroke-linecap="round" stroke-width="1"/>
          </g>
        </g>
        <g id="Group_153" data-name="Group 153" transform="translate(52.147 0)">
          <g id="Rectangle_54-4" data-name="Rectangle 54" transform="translate(0)" fill="none" stroke="#e3e3e9" stroke-width="1">
            <rect width="12.726" height="12.726" stroke="none"/>
            <rect x="0.5" y="0.5" width="11.726" height="11.726" fill="none"/>
          </g>
          <g id="Group_133-4" data-name="Group 133" transform="translate(0 14.983)">
            <line id="Line_26-4" data-name="Line 26" x2="10.782" transform="translate(0 0)" fill="none" stroke="#e3e3e9" stroke-linecap="round" stroke-width="1"/>
            <line id="Line_27-4" data-name="Line 27" x2="5.75" transform="translate(0 2.156)" fill="none" stroke="#e3e3e9" stroke-linecap="round" stroke-width="1"/>
          </g>
        </g>
      </g>
    </g>
  </g>
</svg>
