<svg xmlns="http://www.w3.org/2000/svg" xmlns:xlink="http://www.w3.org/1999/xlink" width="326.974" height="233.777" viewBox="0 0 326.974 233.777">
  <defs>
    <filter id="Path_340" x="95.496" y="6.607" width="190.02" height="135.481" filterUnits="userSpaceOnUse">
      <feOffset dy="5" input="SourceAlpha"/>
      <feGaussianBlur stdDeviation="2.5" result="blur"/>
      <feFlood flood-color="#c4cdd5" flood-opacity="0.302"/>
      <feComposite operator="in" in2="blur"/>
      <feComposite in="SourceGraphic"/>
    </filter>
    <filter id="Path_369" x="259.146" y="58.354" width="67.828" height="49.127" filterUnits="userSpaceOnUse">
      <feOffset dy="3" input="SourceAlpha"/>
      <feGaussianBlur stdDeviation="1" result="blur-2"/>
      <feFlood flood-color="#c4cdd5" flood-opacity="0.329"/>
      <feComposite operator="in" in2="blur-2"/>
      <feComposite in="SourceGraphic"/>
    </filter>
    <linearGradient id="linear-gradient" x1="34.804" y1="0.57" x2="33.713" y2="-0.468" gradientUnits="objectBoundingBox">
      <stop offset="0.041" stop-color="#16182f"/>
      <stop offset="1" stop-color="#242654"/>
    </linearGradient>
  </defs>
  <g id="Group_704" data-name="Group 704" transform="translate(-21831.811 -1375.577)">
    <g id="Group_692" data-name="Group 692" transform="translate(21933.688 1375.577)">
      <g id="Group_680" data-name="Group 680" transform="translate(0 0)">
        <g id="Group_673" data-name="Group 673">
          <path id="Path_339" data-name="Path 339" d="M308.6,213.2H139.9c-2.282,0-4.2-2.5-4.2-5.7V88c0-3.1,1.84-5.7,4.2-5.7H308.6c2.282,0,4.2,2.5,4.2,5.7V207.5C312.721,210.6,310.881,213.2,308.6,213.2Z" transform="translate(-135.7 -82.3)" fill="#c4cdd5"/>
          <g transform="matrix(1, 0, 0, 1, -101.88, 0)" filter="url(#Path_340)">
            <path id="Path_340-2" data-name="Path 340" d="M306.644,211.881H139.775c-2.256,0-4.075-2.469-4.075-5.53V91.4H310.72V206.252C310.72,209.412,308.9,211.881,306.644,211.881Z" transform="translate(-32.7 -82.29)" fill="#fff"/>
          </g>
        </g>
        <g id="Group_676" data-name="Group 676" transform="translate(118.359 22.92)">
          <g id="Group_675" data-name="Group 675" transform="translate(0)">
            <path id="Path_346" data-name="Path 346" d="M281.818,105.6A23.434,23.434,0,0,0,258.4,129.018a23.331,23.331,0,0,0,23.418,23.418,23.417,23.417,0,0,0,8.507-45.235A23.806,23.806,0,0,0,281.818,105.6Zm0,9.707a11.772,11.772,0,0,1,5,1,13.766,13.766,0,0,1,8.707,12.81v.3a13.8,13.8,0,0,1-13.71,13.41,13.465,13.465,0,0,1-10.108-4.5,13.763,13.763,0,0,1,3.3-21.216A14.073,14.073,0,0,1,281.818,115.307Z" transform="translate(-258.4 -105.6)" fill="#dfe3e8" opacity="0.45"/>
            <path id="Path_347" data-name="Path 347" d="M305.231,129h-9.708v.3a13.8,13.8,0,0,1-13.71,13.41,13.465,13.465,0,0,1-10.108-4.5l-7.206,6.4a23.571,23.571,0,0,0,17.413,7.706A23.214,23.214,0,0,0,305.231,129Z" transform="translate(-258.395 -105.582)" fill="#454f5b"/>
            <path id="Path_348" data-name="Path 348" d="M281.809,105.6A23.42,23.42,0,0,0,270,108.8l5,8.306a13.413,13.413,0,0,1,6.905-1.8,11.772,11.772,0,0,1,5,1l3.4-9.007A21.875,21.875,0,0,0,281.809,105.6Z" transform="translate(-258.391 -105.6)" fill="#c4cdd5"/>
            <path id="Path_349" data-name="Path 349" d="M270.009,108.8a23.467,23.467,0,0,0-5.6,35.927l7.206-6.4a13.763,13.763,0,0,1,3.3-21.216Z" transform="translate(-258.4 -105.598)" fill="#919eab"/>
          </g>
          <path id="Path_350" data-name="Path 350" d="M265.7,160.5h39.8c.671,0,1.2,1.1,1.2,2.5v1.1c0,1.4-.527,2.5-1.2,2.5H265.7c-.671,0-1.2-1.1-1.2-2.5V163C264.5,161.6,265.027,160.5,265.7,160.5Zm0,16.513h39.8c.671,0,1.2-1.1,1.2-2.5v-1.1c0-1.4-.527-2.5-1.2-2.5H265.7c-.671,0-1.2,1.1-1.2,2.5v1.1C264.5,175.912,265.027,177.013,265.7,177.013Zm0,10.408h39.8c.671,0,1.2-1.1,1.2-2.5v-1.1c0-1.4-.527-2.5-1.2-2.5H265.7c-.671,0-1.2,1.1-1.2,2.5v1.1C264.5,186.32,265.027,187.421,265.7,187.421Zm0,10.408h39.8c.671,0,1.2-1.1,1.2-2.5v-1.1c0-1.4-.527-2.5-1.2-2.5H265.7c-.671,0-1.2,1.1-1.2,2.5v1.1C264.5,196.728,265.027,197.829,265.7,197.829Z" transform="translate(-262.516 -105.558)" fill="#dfe3e8"/>
        </g>
        <g id="Group_679" data-name="Group 679" transform="translate(9.123 22.92)">
          <g id="Group_677" data-name="Group 677" transform="translate(0)">
            <path id="Path_351" data-name="Path 351" d="M166.293,147.231h78.762c4.193,0,7.593-3,7.593-6.705V113.305c0-3.7-3.4-6.705-7.593-6.705H166.293c-4.193,0-7.593,3-7.593,6.705v27.221C158.7,144.229,162.1,147.231,166.293,147.231Z" transform="translate(-158.7 -106.6)" fill="#c4cdd5"/>
            <path id="Path_352" data-name="Path 352" d="M217.172,112.3H241.7c2.661,0,4.743,1.8,4.743,4.1v21.216c0,2.3-2.082,4.1-4.743,4.1H217.172c-2.661,0-4.743-1.8-4.743-4.1V116.4C212.429,114.1,214.511,112.3,217.172,112.3Zm-9.6,3.1v-.2a1.325,1.325,0,0,0-1.388-1.2H166.388A1.319,1.319,0,0,0,165,115.2v.2a1.325,1.325,0,0,0,1.388,1.2h39.794A1.2,1.2,0,0,0,207.57,115.4Zm0,7.606v.2a1.325,1.325,0,0,1-1.388,1.2H166.388a1.319,1.319,0,0,1-1.388-1.2v-.2a1.325,1.325,0,0,1,1.388-1.2h39.794A1.2,1.2,0,0,1,207.57,123.008Zm0,7.706v.2a1.325,1.325,0,0,1-1.388,1.2H166.388a1.319,1.319,0,0,1-1.388-1.2v-.2a1.325,1.325,0,0,1,1.388-1.2h39.794A1.319,1.319,0,0,1,207.57,130.714Zm0,7.806v.2a1.325,1.325,0,0,1-1.388,1.2H166.388a1.319,1.319,0,0,1-1.388-1.2v-.2a1.325,1.325,0,0,1,1.388-1.2h39.794A1.256,1.256,0,0,1,207.57,138.52Z" transform="translate(-158.695 -106.596)" fill="#fff"/>
          </g>
          <g id="Group_678" data-name="Group 678" transform="translate(0 49.638)">
            <path id="Path_353" data-name="Path 353" d="M166.293,196.831h78.762c4.193,0,7.593-3,7.593-6.705V162.905c0-3.7-3.4-6.705-7.593-6.705H166.293c-4.193,0-7.593,3-7.593,6.705v27.221C158.7,193.829,162.1,196.831,166.293,196.831Z" transform="translate(-158.7 -156.2)" fill="#f4f6f8"/>
            <path id="Path_354" data-name="Path 354" d="M217.172,161.8H241.7c2.661,0,4.743,1.8,4.743,4.1v21.216c0,2.3-2.082,4.1-4.743,4.1H217.172c-2.661,0-4.743-1.8-4.743-4.1V165.9C212.429,163.6,214.511,161.8,217.172,161.8Zm-9.6,3.2v-.2a1.325,1.325,0,0,0-1.388-1.2H166.388A1.319,1.319,0,0,0,165,164.8v.2a1.325,1.325,0,0,0,1.388,1.2h39.794A1.256,1.256,0,0,0,207.57,165Zm0,7.506v.2a1.325,1.325,0,0,1-1.388,1.2H166.388a1.319,1.319,0,0,1-1.388-1.2v-.2a1.325,1.325,0,0,1,1.388-1.2h39.794A1.256,1.256,0,0,1,207.57,172.508Zm0,7.806v.2a1.325,1.325,0,0,1-1.388,1.2H166.388a1.319,1.319,0,0,1-1.388-1.2v-.2a1.325,1.325,0,0,1,1.388-1.2h39.794A1.2,1.2,0,0,1,207.57,180.314Zm0,7.706v.2a1.325,1.325,0,0,1-1.388,1.2H166.388a1.319,1.319,0,0,1-1.388-1.2v-.2a1.325,1.325,0,0,1,1.388-1.2h39.794A1.256,1.256,0,0,1,207.57,188.02Z" transform="translate(-158.695 -156.196)" fill="#dfe3e8"/>
          </g>
        </g>
        <path id="Path_355" data-name="Path 355" d="M144,86.8a1.4,1.4,0,1,1-1.4-1.4A1.431,1.431,0,0,1,144,86.8Z" transform="translate(-135.696 -82.298)" fill="#fff"/>
        <path id="Path_356" data-name="Path 356" d="M147.2,85.4a1.4,1.4,0,1,0,1.4,1.4A1.368,1.368,0,0,0,147.2,85.4Z" transform="translate(-135.692 -82.298)" fill="#fff"/>
        <path id="Path_357" data-name="Path 357" d="M151.8,85.4a1.4,1.4,0,1,0,1.4,1.4A1.368,1.368,0,0,0,151.8,85.4Z" transform="translate(-135.689 -82.298)" fill="#fff"/>
      </g>
      <g id="Group_686" data-name="Group 686" transform="translate(160.174 58.354)">
        <g transform="matrix(1, 0, 0, 1, -262.05, -58.35)" filter="url(#Path_369)">
          <path id="Path_369-2" data-name="Path 369" d="M358.359,89.927h-43.89a8.979,8.979,0,0,1-8.969-9.064V55.769a8.958,8.958,0,0,1,8.969-8.969h43.89a8.958,8.958,0,0,1,8.969,8.969V80.862A8.979,8.979,0,0,1,358.359,89.927Z" transform="translate(-43.35 11.55)" fill="#fff"/>
        </g>
        <path id="Path_370" data-name="Path 370" d="M367.323,56.437H305.4v-.763a8.918,8.918,0,0,1,8.873-8.873H358.45a8.918,8.918,0,0,1,8.873,8.873Z" transform="translate(-305.4 -46.8)" fill="#c4cdd5"/>
        <g id="Group_684" data-name="Group 684" transform="translate(5.057 4.198)">
          <path id="Path_371" data-name="Path 371" d="M312.608,52.154a.954.954,0,1,1-.954-.954A.956.956,0,0,1,312.608,52.154Z" transform="translate(-310.7 -51.2)" fill="#fff"/>
          <path id="Path_372" data-name="Path 372" d="M317.308,52.154a.954.954,0,1,1-.954-.954A1.026,1.026,0,0,1,317.308,52.154Z" transform="translate(-310.916 -51.2)" fill="#fff"/>
          <path id="Path_373" data-name="Path 373" d="M321.908,52.154a.954.954,0,1,1-.954-.954A.956.956,0,0,1,321.908,52.154Z" transform="translate(-311.127 -51.2)" fill="#fff"/>
        </g>
        <g id="Group_685" data-name="Group 685" transform="translate(4.58 14.407)">
          <path id="Path_374" data-name="Path 374" d="M311.059,84.4H362.2a.855.855,0,0,1,.859.859v.191a.855.855,0,0,1-.859.859H311.059a.855.855,0,0,1-.859-.859v-.191A.855.855,0,0,1,311.059,84.4Z" transform="translate(-310.2 -62.932)" fill="#f4f6f8"/>
          <path id="Path_375" data-name="Path 375" d="M311.059,79.3H362.2a.855.855,0,0,1,.859.859v.191a.855.855,0,0,1-.859.859H311.059a.855.855,0,0,1-.859-.859v-.191A.8.8,0,0,1,311.059,79.3Z" transform="translate(-310.2 -62.698)" fill="#f4f6f8"/>
          <path id="Path_376" data-name="Path 376" d="M311.059,74.1H362.2a.855.855,0,0,1,.859.859v.191a.855.855,0,0,1-.859.859H311.059a.855.855,0,0,1-.859-.859v-.191A.855.855,0,0,1,311.059,74.1Z" transform="translate(-310.2 -62.46)" fill="#dfe3e8"/>
          <circle id="Ellipse_44" data-name="Ellipse 44" cx="4.771" cy="4.771" r="4.771" transform="translate(43.317)" fill="#f4f6f8"/>
          <path id="Path_377" data-name="Path 377" d="M351.341,66.671a4.771,4.771,0,1,1-4.771-4.771A4.784,4.784,0,0,1,351.341,66.671Z" transform="translate(-311.65 -61.9)" fill="#dfe3e8"/>
          <circle id="Ellipse_45" data-name="Ellipse 45" cx="4.771" cy="4.771" r="4.771" transform="translate(17.079)" fill="#919eab"/>
        </g>
      </g>
      <g id="Group_691" data-name="Group 691" transform="translate(119.183 78.148)">
        <path id="Path_378" data-name="Path 378" d="M65.934,18.188s.334-3.338.668-3.671A6.363,6.363,0,0,0,67.853,13.1c.167-.417.5-4.756.167-5.424-.334-.918-3.087-2-3.338-2.086C64.6,2.835,65.35.165,64.1,0c-1-.167-1,2.42-1.168,5.424-.167,2.336-1,6.175-.834,6.842.083.417.417,1.252.5,1.669a40.162,40.162,0,0,1-.5,4.005Z" transform="translate(-10.25 0.009)" fill="#fbd5b5"/>
        <path id="Path_379" data-name="Path 379" d="M12.3,88.52a4.725,4.725,0,0,1,1,2.086c0,.834-.083,4.005.584,5.424,0,0,3.338-6.258,4.506-7.76-.584-.918-1.836,0-2.42-.417a12.841,12.841,0,0,1-1.5-2.253A13.454,13.454,0,0,0,12.3,88.52Z" transform="translate(-2.008 -14.168)" fill="#fbd5b5"/>
        <path id="Path_380" data-name="Path 380" d="M49.7,174.268s.334,2.587.417,3.922c.083.668,0,2.92.083,4.005.167,1.085,1.418,1.585,2.92,1.418,1.418-.167,3.338-1.418,5.424-1.585,2.754-.334,5.34-1.168,5.841-2.086,1.418-2.837-6.508-2.587-8.261-3.338a4.159,4.159,0,0,1-2.086-3S50.534,173.767,49.7,174.268Z" transform="translate(-8.201 -28.741)" fill="#fbd5b5"/>
        <path id="Path_381" data-name="Path 381" d="M31.72,174.581a19.737,19.737,0,0,0,.167,4.172,27.53,27.53,0,0,1,.918,3.755c.083,1.085-1.085,1.919-2.5,2s-3.087-.751-5.09-.834c-2.253-.083-5.006-1.168-5.507-2.086-.918-1.418-.668-2.754,2.086-3.087,1-.167,2.754.25,4.255-.834a3.418,3.418,0,0,0,1.418-2.753S30.719,174.248,31.72,174.581Z" transform="translate(-3.154 -28.888)" fill="#fbd5b5"/>
        <path id="Path_382" data-name="Path 382" d="M57.042,177.6a5.275,5.275,0,0,1-4.422,2.086,5.446,5.446,0,0,1-2.42-.5c0,.918,0,2.753.083,3.755.167,1.085,1.418,1.585,2.92,1.418,1.418-.167,3.338-1.418,5.424-1.585,2.754-.334,5.34-1.168,5.841-2.086C65.72,178.184,59.629,178.1,57.042,177.6Z" transform="translate(-8.284 -29.403)" fill="#050505"/>
        <path id="Path_383" data-name="Path 383" d="M28.943,181.086A5.115,5.115,0,0,1,24.6,179a20.66,20.66,0,0,1-2.92.25c-2.754.334-3.087,1.669-2.086,3.087.584.834,3.254,1.919,5.507,2.086,2.086.083,3.671.918,5.09.834s2.587-.918,2.5-2a14.382,14.382,0,0,0-.751-3A5.336,5.336,0,0,1,28.943,181.086Z" transform="translate(-3.131 -29.635)" fill="#050505"/>
        <path id="Path_384" data-name="Path 384" d="M17.217,88.2S13.3,95.04,12.795,101.632s6.258,28.787,6.842,33.209c.5,4.506.918,9.762,2.42,14.769s3.755,11.682,3.588,12.683c0,0,4.422.751,5.59-.751,0,0-.918-12.516-1.168-15.186s-2.086-10.18-2.253-12.6.25-26.117.751-26.868c0,0,8.427,25.032,9.012,27.2.5,2.169.918,6.425,1.669,10.013.668,3.671,3.755,16.521,3.838,17.355,0,0,4.005,1.168,6.175-.584,0,0-.417-13.517-.584-15.77s-2-10.18-2.42-12.1S44,102.967,43.334,99.128a78.114,78.114,0,0,0-2.5-9.262S20.137,88.031,17.217,88.2Z" transform="translate(-2.085 -14.596)" fill="#363636"/>
        <g id="Group_690" data-name="Group 690" transform="translate(0 15.792)">
          <path id="Path_385" data-name="Path 385" d="M56.733,20.572c-.083-1-3.755-2.253-4.756-1.335-1,1-.25,6.425-4.005,12.933A52.784,52.784,0,0,1,40.63,42.183c-4.339,3.421-9.6.584-12.349.751-2.92.083-12.6,2.5-13.934,3.755C12.427,48.524,3.5,58.7.245,62.792c-2.169,2.67,9.012,14.852,9.429,15.436s4.673-1.5,4.089-2.754c-.584-1-5.674-9.345-5.924-10.6-.25-1,7.176-6.926,8.678-8.01.083,1.168,2.336,10.513,2.086,12.6-.25,2-4.089,7.259-5.173,9.345-.417.834,6.675,4.005,13.768,4.255,6.341.167,12.6-2.5,12.433-3.254-.417-1.585-1.836-6.926-1.5-9.6.334-2.336,4.005-15.854,5.34-18.607C45.719,47.439,51.31,42.6,53.73,36.676A42.754,42.754,0,0,0,56.733,20.572Z" transform="translate(0.034 -18.917)" fill="#ff1564"/>
        </g>
        <path id="Path_386" data-name="Path 386" d="M24.165,25.838a11.145,11.145,0,0,0,.083,13.1c2.42,3.338-2.67,8.845-2.253,13.1s6.175,3.588,6.341,7.676c.167,4.923,6.926,6.759,10.6,2s3.671-10.6,2.42-13.434c-1.252-2.92-3.588-6.091-3.838-8.761s1.752-8.928-.167-12.266C34.595,22.5,27.669,21.332,24.165,25.838Z" transform="translate(-3.609 -3.802)" fill="#1e394c"/>
      </g>
    </g>
    <g id="Group_703" data-name="Group 703" transform="translate(21831.811 1456.474)">
      <g id="Group_694" data-name="Group 694" transform="translate(44.509 9.988)">
        <g id="Group_693" data-name="Group 693" transform="translate(0 0)">
          <path id="Path_387" data-name="Path 387" d="M90.651,17.916a18.314,18.314,0,0,0-5.779-1.465L83.57,12.3l-2.035.326L79.5,12.87l-2.035.326L77.3,17.509a18.088,18.088,0,0,0-5.128,3.012l-3.826-1.953L67.128,20.2l-1.221,1.628-1.221,1.628L67.7,26.626A18.314,18.314,0,0,0,66.233,32.4L62,33.707l.326,2.035.244,2.035.326,2.035,4.314.163A18.089,18.089,0,0,0,70.221,45.1l-2.035,3.826,1.628,1.221,1.628,1.221,1.628,1.221,3.174-3.012a18.314,18.314,0,0,0,5.779,1.465l1.3,4.151,2.035-.326,2.035-.244L89.43,54.3l.163-4.314a18.088,18.088,0,0,0,5.128-3.012l3.826,2.035,1.221-1.628,1.221-1.628,1.221-1.628L99.2,40.951a18.315,18.315,0,0,0,1.465-5.779l4.151-1.3-.326-2.035-.244-2.035-.326-2.035L99.6,27.6a18.088,18.088,0,0,0-3.012-5.128l2.035-3.826L97,17.428l-1.628-1.221-1.628-1.221ZM90.9,39.4A9.3,9.3,0,1,1,89.1,26.381,9.324,9.324,0,0,1,90.9,39.4Z" transform="translate(-62 -12.3)" fill="#dfe3e8"/>
        </g>
        <path id="Path_388" data-name="Path 388" d="M91.981,34.648a5.669,5.669,0,1,0-2.116,7.733A5.57,5.57,0,0,0,91.981,34.648Z" transform="translate(-65.608 -15.927)" fill="#dfe3e8"/>
      </g>
      <g id="Group_695" data-name="Group 695" transform="translate(28.149 1.743)">
        <path id="Path_389" data-name="Path 389" d="M57.609,12.939l-2.2.814A2.438,2.438,0,0,0,53.865,15.3l-1.058,2.849a5.2,5.2,0,0,0-.163,3.337,9.337,9.337,0,0,0,2.116,4.07,40.1,40.1,0,0,1-12.86,0c1.221-3.744,2.116-7,4.721-9.93l.977-1.14c-.326-.081-1.221-7.9-.163-9.686C49.47,1.3,53.7,2.032,54.842,2.846c1.709,1.384,1.3,3.012,2.035,3.663.733.733,1.3.733,1.384,1.058,0,.326-.326.57-.488.733.163,1.465.733,2.686.733,3.581A2.834,2.834,0,0,1,57.609,12.939Z" transform="translate(-41.9 -2.171)" fill="#fbd5b5"/>
      </g>
      <path id="Path_390" data-name="Path 390" d="M56.109,17.76l-.488,1.3A3.123,3.123,0,0,0,54.4,15.888a5.294,5.294,0,0,0,2.116.244,7.514,7.514,0,0,0,2.035-.407c.488-.163,1.14-.326,1.14-.326h0l-2.035.733A3.35,3.35,0,0,0,56.109,17.76Z" transform="translate(-16.076 -2.889)" fill="#f58f9e" opacity="0.35"/>
      <path id="Path_394" data-name="Path 394" d="M16.781,122.288a11.045,11.045,0,0,1-2.767,2.279c-1.872,1.14-3.663,2.279-3.419,2.849s4.64,7,7.244,8.465.326-1.3.244-1.953c-.163-.651-1.465-3.907-.326-5.372,1.058-1.465,2.36-2.36,2.035-3.012C19.386,124.811,17.676,121.8,16.781,122.288Z" transform="translate(-7.922 -22.765)" fill="#fbd5b5"/>
      <g id="Group_698" data-name="Group 698" transform="translate(7.474 58.174)">
        <path id="Path_395" data-name="Path 395" d="M36.686,71.5s.407,18.07-1.791,21.326S19.43,107.558,16.5,113.337c0,0,1.791,4.314,5.047,4.151,0,0,7.488-8.791,12.942-12.047,4.721-2.767,7.488-5.209,8.465-7.651s8.384-25.477,8.384-25.477Z" transform="translate(-16.5 -71.5)" fill="#100060"/>
      </g>
      <path id="Path_396" data-name="Path 396" d="M12.512,125.8a2.1,2.1,0,0,0,1.14,2.523c1.384.9,3.663.651,3.5,2.116a9.159,9.159,0,0,0,1.547,5.779c.9,1.14,3.581,3.256,3.012,3.826-.407.407-4.721,1.14-9.442-3.5-4.965-4.884-5.128-7.407-4.884-7.9C7.71,127.916,9.989,126.126,12.512,125.8Z" transform="translate(-7.317 -23.428)" fill="#050505"/>
      <g id="Group_701" data-name="Group 701" transform="translate(26.487 47.674)">
        <path id="Path_397" data-name="Path 397" d="M63.1,132.7a26.206,26.206,0,0,0,.244,4.721c.326.977,8.221.814,9.93-.651,1.791-1.465-4.233-1.872-5.372-3.012a7.983,7.983,0,0,1-1.058-1.953Z" transform="translate(-44.179 -72.218)" fill="#fbd5b5"/>
        <g id="Group_700" data-name="Group 700" transform="translate(0 0)">
          <path id="Path_398" data-name="Path 398" d="M41.6,58.6s-2.035,5.291-1.709,9.116c.57,7.326,10.012,23.116,11.151,26.372,1.058,3.256-1.14,8.3.977,13.512,2.2,5.209,5.942,11.884,6.023,12.291.081.326,4.558.814,5.535-1.465A85.582,85.582,0,0,1,60.241,104.1c-.651-5.291-1.709-12.209-1.872-15.547S53.892,59.17,53.892,59.17,52.183,59.414,41.6,58.6Z" transform="translate(-39.857 -58.6)" fill="#3c2e84"/>
        </g>
        <path id="Path_399" data-name="Path 399" d="M62.866,135.657a2.2,2.2,0,0,0,2.767,1.709c2.279-.57,1.384-2.035,2.116-2.6.488-.326,1.628-.163,4.07.407,3.174.733,8.14,1.058,8.14,2.767,0,.9-3.826,2.93-8.384,3.419a26.527,26.527,0,0,1-9.523-.733C61.564,140.378,61.971,137.041,62.866,135.657Z" transform="translate(-43.947 -72.739)" fill="#050505"/>
      </g>
      <g id="Group_702" data-name="Group 702" transform="translate(26.765 17.129)">
        <path id="Path_400" data-name="Path 400" d="M52.735,24.921a5.813,5.813,0,0,0-6.512-3.744c-2.279.488-4.965,4.884-5.372,8.3C40.363,32.9,42.56,48.037,40.2,53.572c0,0,12.047,3.826,16.686,2.2a81.663,81.663,0,0,1-1.953-9.36c-.814-7.407,2.279-8.3,2.2-12.372C57.049,31.432,53.223,26.793,52.735,24.921Z" transform="translate(-40.2 -21.074)" fill="#f69e9d"/>
        <path id="Path_401" data-name="Path 401" d="M47.178,27.79c-1.791-.326-3.337,1.221-3.988,5.942-.814,5.86-1.709,14.407-1.221,17.093.326,1.465,9.442-.407,17.663-3.256,1.221-.407,3.012,1.058,4.151.977,2.279-.163,5.86-1.221,5.291-2.523-.326-.733-2.686-1.14-2.523-1.221L69.4,43.744c-.081-.733-1.628-.488-3.174-.733a11.673,11.673,0,0,0-6.593.9c-1.628.57-9.279,2.2-12.209,1.709.488-3.337,1.14-7.407,1.465-9.442C49.538,31.128,50.026,28.36,47.178,27.79Z" transform="translate(-40.503 -22.315)" fill="#fbd5b5"/>
        <path id="Path_402" data-name="Path 402" d="M49.581,36.251a44.847,44.847,0,0,0-5.779-.733c-.407,0-.9-.081-1.3-.081.081-.733.163-1.384.244-2.116.651-4.64,2.849-7.407,4.64-6.837,2.767.9,3.012,4.314,2.279,9.2A1.207,1.207,0,0,1,49.581,36.251Z" transform="translate(-40.628 -22.066)" fill="#f69e9d"/>
      </g>
      <path id="Path_403" data-name="Path 403" d="M47.709.412a5.588,5.588,0,0,1,6.674,1.953c-2.767.326-.814,3.174-2.849,4.721-1.872,1.384-.977,3.581-1.384,7.244-.651,6.023-7.814,4.8-9.2,10.174-2.686-7,3.988-10.256,3.256-14.814C43.558,4.971,44.7,1.471,47.709.412Z" transform="translate(-13.455 -0.029)" fill="url(#linear-gradient)"/>
    </g>
  </g>
</svg>
