<svg xmlns="http://www.w3.org/2000/svg" width="70" height="70" viewBox="0 0 70 70"><defs><style>.a{fill:#fff;}.b{fill:none;stroke:#005bcf;stroke-width:1.2px;}.c{fill:#005bcf;}</style></defs><g transform="translate(265.115 442.603)"><rect class="a" width="70" height="70" transform="translate(-265.115 -442.603)"/><g transform="translate(-253.115 -431.603)"><g transform="translate(16.429 23.455)"><g transform="translate(7.622)"><path class="b" d="M264.211,233.179l1.309,9.137h2.554l1.309-9.137Z" transform="translate(-264.211 -233.179)"/></g><g transform="translate(14.981)"><path class="b" d="M363.569,233.179l-1.309,9.137h3.381l2.055-9.137Z" transform="translate(-362.26 -233.179)"/></g><g transform="translate(0 0)"><path class="b" d="M166.776,233.179h-4.127l1.845,9.137h3.59Z" transform="translate(-162.649 -233.179)"/></g></g><path class="c" d="M64.074,120.224a.953.953,0,0,0-.727-.337h-34.9l-1.18-5.842a.953.953,0,0,0-.934-.764H20.11a.953.953,0,0,0,0,1.906h5.44l5.792,28.678a4.218,4.218,0,1,0,6.284.875H50.84a4.218,4.218,0,1,0,7.029-.03.953.953,0,0,0-.24-1.876H33.078l-.344-1.7H56.9a4.757,4.757,0,0,0,4.709-3.992L64.287,121A.953.953,0,0,0,64.074,120.224ZM36.413,147.056A2.312,2.312,0,1,1,34.1,144.74,2.317,2.317,0,0,1,36.413,147.056Zm17.953,2.317a2.317,2.317,0,1,1,2.312-2.317A2.317,2.317,0,0,1,54.365,149.373Zm5.365-12.548a2.857,2.857,0,0,1-2.828,2.4H32.349l-3.52-17.43H62.223Z" transform="translate(-19.157 -102.485)"/><path class="c" d="M235.726,14.282a.953.953,0,0,0,1.523,0l5.6-7.437a.953.953,0,0,0-.761-1.526h-2.164V.953A.953.953,0,0,0,238.968,0h-4.961a.953.953,0,0,0-.953.953V5.319H230.89a.953.953,0,0,0-.761,1.526Zm-1.719-7.057a.953.953,0,0,0,.953-.953V1.906h3.055V6.272a.953.953,0,0,0,.953.953h1.207l-3.687,4.9-3.687-4.9Z" transform="translate(-209.85 0)"/></g></g></svg>